solid ASCII
  facet normal 0.000000e+00 1.000000e+00 -0.000000e+00
    outer loop
      vertex   2.025000e+02 0.000000e+00 -2.025000e+02
      vertex   1.499106e+02 0.000000e+00 -5.177421e+00
      vertex   2.025000e+02 0.000000e+00 2.025000e+02
    endloop
  endfacet
  facet normal 0.000000e+00 1.000000e+00 0.000000e+00
    outer loop
      vertex   2.025000e+02 0.000000e+00 2.025000e+02
      vertex   1.499106e+02 0.000000e+00 -5.177421e+00
      vertex   1.499106e+02 0.000000e+00 5.177421e+00
    endloop
  endfacet
  facet normal 0.000000e+00 1.000000e+00 0.000000e+00
    outer loop
      vertex   2.025000e+02 0.000000e+00 2.025000e+02
      vertex   1.499106e+02 0.000000e+00 5.177421e+00
      vertex   1.491962e+02 0.000000e+00 1.550759e+01
    endloop
  endfacet
  facet normal 0.000000e+00 1.000000e+00 0.000000e+00
    outer loop
      vertex   -2.025000e+02 0.000000e+00 -2.025000e+02
      vertex   2.589096e+00 0.000000e+00 -1.499777e+02
      vertex   2.025000e+02 0.000000e+00 -2.025000e+02
    endloop
  endfacet
  facet normal 0.000000e+00 1.000000e+00 0.000000e+00
    outer loop
      vertex   2.025000e+02 0.000000e+00 -2.025000e+02
      vertex   2.589096e+00 0.000000e+00 -1.499777e+02
      vertex   1.293006e+01 0.000000e+00 -1.494417e+02
    endloop
  endfacet
  facet normal 0.000000e+00 1.000000e+00 0.000000e+00
    outer loop
      vertex   2.025000e+02 0.000000e+00 -2.025000e+02
      vertex   1.293006e+01 0.000000e+00 -1.494417e+02
      vertex   2.320940e+01 0.000000e+00 -1.481935e+02
    endloop
  endfacet
  facet normal 0.000000e+00 1.000000e+00 0.000000e+00
    outer loop
      vertex   -2.025000e+02 0.000000e+00 2.025000e+02
      vertex   -1.500000e+02 0.000000e+00 1.836970e-14
      vertex   -2.025000e+02 0.000000e+00 -2.025000e+02
    endloop
  endfacet
  facet normal 0.000000e+00 1.000000e+00 0.000000e+00
    outer loop
      vertex   -2.025000e+02 0.000000e+00 -2.025000e+02
      vertex   -1.500000e+02 0.000000e+00 1.836970e-14
      vertex   -1.496426e+02 0.000000e+00 -1.034867e+01
    endloop
  endfacet
  facet normal 0.000000e+00 1.000000e+00 0.000000e+00
    outer loop
      vertex   -2.025000e+02 0.000000e+00 -2.025000e+02
      vertex   -1.496426e+02 0.000000e+00 -1.034867e+01
      vertex   -1.485721e+02 0.000000e+00 -2.064803e+01
    endloop
  endfacet
  facet normal 0.000000e+00 1.000000e+00 0.000000e+00
    outer loop
      vertex   2.025000e+02 0.000000e+00 2.025000e+02
      vertex   2.589096e+00 0.000000e+00 1.499777e+02
      vertex   -2.025000e+02 0.000000e+00 2.025000e+02
    endloop
  endfacet
  facet normal 0.000000e+00 1.000000e+00 0.000000e+00
    outer loop
      vertex   -2.025000e+02 0.000000e+00 2.025000e+02
      vertex   2.589096e+00 0.000000e+00 1.499777e+02
      vertex   -7.764203e+00 0.000000e+00 1.497989e+02
    endloop
  endfacet
  facet normal 0.000000e+00 1.000000e+00 0.000000e+00
    outer loop
      vertex   -2.025000e+02 0.000000e+00 2.025000e+02
      vertex   -7.764203e+00 0.000000e+00 1.497989e+02
      vertex   -1.808050e+01 0.000000e+00 1.489063e+02
    endloop
  endfacet
  facet normal 0.000000e+00 1.000000e+00 0.000000e+00
    outer loop
      vertex   -1.485721e+02 0.000000e+00 -2.064803e+01
      vertex   -1.467935e+02 0.000000e+00 -3.084899e+01
      vertex   -2.025000e+02 0.000000e+00 -2.025000e+02
    endloop
  endfacet
  facet normal 0.000000e+00 1.000000e+00 0.000000e+00
    outer loop
      vertex   -2.025000e+02 0.000000e+00 -2.025000e+02
      vertex   -1.467935e+02 0.000000e+00 -3.084899e+01
      vertex   -1.443155e+02 0.000000e+00 -4.090293e+01
    endloop
  endfacet
  facet normal 0.000000e+00 1.000000e+00 0.000000e+00
    outer loop
      vertex   -2.025000e+02 0.000000e+00 -2.025000e+02
      vertex   -1.443155e+02 0.000000e+00 -4.090293e+01
      vertex   -1.411496e+02 0.000000e+00 -5.076196e+01
    endloop
  endfacet
  facet normal 0.000000e+00 1.000000e+00 0.000000e+00
    outer loop
      vertex   -1.411496e+02 0.000000e+00 -5.076196e+01
      vertex   -1.373112e+02 0.000000e+00 -6.037909e+01
      vertex   -2.025000e+02 0.000000e+00 -2.025000e+02
    endloop
  endfacet
  facet normal 0.000000e+00 1.000000e+00 0.000000e+00
    outer loop
      vertex   -2.025000e+02 0.000000e+00 -2.025000e+02
      vertex   -1.373112e+02 0.000000e+00 -6.037909e+01
      vertex   -1.328184e+02 0.000000e+00 -6.970848e+01
    endloop
  endfacet
  facet normal 0.000000e+00 1.000000e+00 0.000000e+00
    outer loop
      vertex   -2.025000e+02 0.000000e+00 -2.025000e+02
      vertex   -1.328184e+02 0.000000e+00 -6.970848e+01
      vertex   -1.276927e+02 0.000000e+00 -7.870567e+01
    endloop
  endfacet
  facet normal 0.000000e+00 1.000000e+00 0.000000e+00
    outer loop
      vertex   -1.276927e+02 0.000000e+00 -7.870567e+01
      vertex   -1.219584e+02 0.000000e+00 -8.732780e+01
      vertex   -2.025000e+02 0.000000e+00 -2.025000e+02
    endloop
  endfacet
  facet normal 0.000000e+00 1.000000e+00 0.000000e+00
    outer loop
      vertex   -2.025000e+02 0.000000e+00 -2.025000e+02
      vertex   -1.219584e+02 0.000000e+00 -8.732780e+01
      vertex   -1.156430e+02 0.000000e+00 -9.553377e+01
    endloop
  endfacet
  facet normal 0.000000e+00 1.000000e+00 0.000000e+00
    outer loop
      vertex   -2.025000e+02 0.000000e+00 -2.025000e+02
      vertex   -1.156430e+02 0.000000e+00 -9.553377e+01
      vertex   -1.087764e+02 0.000000e+00 -1.032845e+02
    endloop
  endfacet
  facet normal 0.000000e+00 1.000000e+00 0.000000e+00
    outer loop
      vertex   -1.087764e+02 0.000000e+00 -1.032845e+02
      vertex   -1.013915e+02 0.000000e+00 -1.105430e+02
      vertex   -2.025000e+02 0.000000e+00 -2.025000e+02
    endloop
  endfacet
  facet normal 0.000000e+00 1.000000e+00 0.000000e+00
    outer loop
      vertex   -2.025000e+02 0.000000e+00 -2.025000e+02
      vertex   -1.013915e+02 0.000000e+00 -1.105430e+02
      vertex   -9.352347e+01 0.000000e+00 -1.172747e+02
    endloop
  endfacet
  facet normal 0.000000e+00 1.000000e+00 0.000000e+00
    outer loop
      vertex   -2.025000e+02 0.000000e+00 -2.025000e+02
      vertex   -9.352347e+01 0.000000e+00 -1.172747e+02
      vertex   -8.520971e+01 0.000000e+00 -1.234476e+02
    endloop
  endfacet
  facet normal 0.000000e+00 1.000000e+00 0.000000e+00
    outer loop
      vertex   -8.520971e+01 0.000000e+00 -1.234476e+02
      vertex   -7.648989e+01 0.000000e+00 -1.290322e+02
      vertex   -2.025000e+02 0.000000e+00 -2.025000e+02
    endloop
  endfacet
  facet normal 0.000000e+00 1.000000e+00 0.000000e+00
    outer loop
      vertex   -2.025000e+02 0.000000e+00 -2.025000e+02
      vertex   -7.648989e+01 0.000000e+00 -1.290322e+02
      vertex   -6.740556e+01 0.000000e+00 -1.340018e+02
    endloop
  endfacet
  facet normal 0.000000e+00 1.000000e+00 0.000000e+00
    outer loop
      vertex   -2.025000e+02 0.000000e+00 -2.025000e+02
      vertex   -6.740556e+01 0.000000e+00 -1.340018e+02
      vertex   -5.800001e+01 0.000000e+00 -1.383329e+02
    endloop
  endfacet
  facet normal 0.000000e+00 1.000000e+00 0.000000e+00
    outer loop
      vertex   -5.800001e+01 0.000000e+00 -1.383329e+02
      vertex   -4.831807e+01 0.000000e+00 -1.420048e+02
      vertex   -2.025000e+02 0.000000e+00 -2.025000e+02
    endloop
  endfacet
  facet normal 0.000000e+00 1.000000e+00 0.000000e+00
    outer loop
      vertex   -2.025000e+02 0.000000e+00 -2.025000e+02
      vertex   -4.831807e+01 0.000000e+00 -1.420048e+02
      vertex   -3.840586e+01 0.000000e+00 -1.450000e+02
    endloop
  endfacet
  facet normal 0.000000e+00 1.000000e+00 0.000000e+00
    outer loop
      vertex   -2.025000e+02 0.000000e+00 -2.025000e+02
      vertex   -3.840586e+01 0.000000e+00 -1.450000e+02
      vertex   -2.831064e+01 0.000000e+00 -1.473041e+02
    endloop
  endfacet
  facet normal 0.000000e+00 1.000000e+00 0.000000e+00
    outer loop
      vertex   -2.831064e+01 0.000000e+00 -1.473041e+02
      vertex   -1.808050e+01 0.000000e+00 -1.489063e+02
      vertex   -2.025000e+02 0.000000e+00 -2.025000e+02
    endloop
  endfacet
  facet normal 0.000000e+00 1.000000e+00 0.000000e+00
    outer loop
      vertex   -2.025000e+02 0.000000e+00 -2.025000e+02
      vertex   -1.808050e+01 0.000000e+00 -1.489063e+02
      vertex   -7.764203e+00 0.000000e+00 -1.497989e+02
    endloop
  endfacet
  facet normal 0.000000e+00 1.000000e+00 0.000000e+00
    outer loop
      vertex   -2.025000e+02 0.000000e+00 -2.025000e+02
      vertex   -7.764203e+00 0.000000e+00 -1.497989e+02
      vertex   2.589096e+00 0.000000e+00 -1.499777e+02
    endloop
  endfacet
  facet normal -0.000000e+00 1.000000e+00 0.000000e+00
    outer loop
      vertex   2.320940e+01 0.000000e+00 -1.481935e+02
      vertex   3.337814e+01 0.000000e+00 -1.462392e+02
      vertex   2.025000e+02 0.000000e+00 -2.025000e+02
    endloop
  endfacet
  facet normal 0.000000e+00 1.000000e+00 0.000000e+00
    outer loop
      vertex   2.025000e+02 0.000000e+00 -2.025000e+02
      vertex   3.337814e+01 0.000000e+00 -1.462392e+02
      vertex   4.338782e+01 0.000000e+00 -1.435879e+02
    endloop
  endfacet
  facet normal 0.000000e+00 1.000000e+00 0.000000e+00
    outer loop
      vertex   2.025000e+02 0.000000e+00 -2.025000e+02
      vertex   4.338782e+01 0.000000e+00 -1.435879e+02
      vertex   5.319073e+01 0.000000e+00 -1.402524e+02
    endloop
  endfacet
  facet normal -0.000000e+00 1.000000e+00 0.000000e+00
    outer loop
      vertex   5.319073e+01 0.000000e+00 -1.402524e+02
      vertex   6.274017e+01 0.000000e+00 -1.362486e+02
      vertex   2.025000e+02 0.000000e+00 -2.025000e+02
    endloop
  endfacet
  facet normal 0.000000e+00 1.000000e+00 0.000000e+00
    outer loop
      vertex   2.025000e+02 0.000000e+00 -2.025000e+02
      vertex   6.274017e+01 0.000000e+00 -1.362486e+02
      vertex   7.199062e+01 0.000000e+00 -1.315954e+02
    endloop
  endfacet
  facet normal 0.000000e+00 1.000000e+00 0.000000e+00
    outer loop
      vertex   2.025000e+02 0.000000e+00 -2.025000e+02
      vertex   7.199062e+01 0.000000e+00 -1.315954e+02
      vertex   8.089801e+01 0.000000e+00 -1.263151e+02
    endloop
  endfacet
  facet normal -0.000000e+00 1.000000e+00 0.000000e+00
    outer loop
      vertex   8.089801e+01 0.000000e+00 -1.263151e+02
      vertex   8.941987e+01 0.000000e+00 -1.204329e+02
      vertex   2.025000e+02 0.000000e+00 -2.025000e+02
    endloop
  endfacet
  facet normal 0.000000e+00 1.000000e+00 0.000000e+00
    outer loop
      vertex   2.025000e+02 0.000000e+00 -2.025000e+02
      vertex   8.941987e+01 0.000000e+00 -1.204329e+02
      vertex   9.751561e+01 0.000000e+00 -1.139768e+02
    endloop
  endfacet
  facet normal 0.000000e+00 1.000000e+00 0.000000e+00
    outer loop
      vertex   2.025000e+02 0.000000e+00 -2.025000e+02
      vertex   9.751561e+01 0.000000e+00 -1.139768e+02
      vertex   1.051466e+02 0.000000e+00 -1.069775e+02
    endloop
  endfacet
  facet normal -0.000000e+00 1.000000e+00 0.000000e+00
    outer loop
      vertex   1.051466e+02 0.000000e+00 -1.069775e+02
      vertex   1.122766e+02 0.000000e+00 -9.946840e+01
      vertex   2.025000e+02 0.000000e+00 -2.025000e+02
    endloop
  endfacet
  facet normal 0.000000e+00 1.000000e+00 0.000000e+00
    outer loop
      vertex   2.025000e+02 0.000000e+00 -2.025000e+02
      vertex   1.122766e+02 0.000000e+00 -9.946840e+01
      vertex   1.188715e+02 0.000000e+00 -9.148530e+01
    endloop
  endfacet
  facet normal 0.000000e+00 1.000000e+00 0.000000e+00
    outer loop
      vertex   2.025000e+02 0.000000e+00 -2.025000e+02
      vertex   1.188715e+02 0.000000e+00 -9.148530e+01
      vertex   1.249000e+02 0.000000e+00 -8.306623e+01
    endloop
  endfacet
  facet normal -0.000000e+00 1.000000e+00 0.000000e+00
    outer loop
      vertex   1.249000e+02 0.000000e+00 -8.306623e+01
      vertex   1.303332e+02 0.000000e+00 -7.425132e+01
      vertex   2.025000e+02 0.000000e+00 -2.025000e+02
    endloop
  endfacet
  facet normal 0.000000e+00 1.000000e+00 0.000000e+00
    outer loop
      vertex   2.025000e+02 0.000000e+00 -2.025000e+02
      vertex   1.303332e+02 0.000000e+00 -7.425132e+01
      vertex   1.351453e+02 0.000000e+00 -6.508256e+01
    endloop
  endfacet
  facet normal 0.000000e+00 1.000000e+00 0.000000e+00
    outer loop
      vertex   2.025000e+02 0.000000e+00 -2.025000e+02
      vertex   1.351453e+02 0.000000e+00 -6.508256e+01
      vertex   1.393134e+02 0.000000e+00 -5.560366e+01
    endloop
  endfacet
  facet normal -0.000000e+00 1.000000e+00 0.000000e+00
    outer loop
      vertex   1.393134e+02 0.000000e+00 -5.560366e+01
      vertex   1.428176e+02 0.000000e+00 -4.585977e+01
      vertex   2.025000e+02 0.000000e+00 -2.025000e+02
    endloop
  endfacet
  facet normal 0.000000e+00 1.000000e+00 0.000000e+00
    outer loop
      vertex   2.025000e+02 0.000000e+00 -2.025000e+02
      vertex   1.428176e+02 0.000000e+00 -4.585977e+01
      vertex   1.456413e+02 0.000000e+00 -3.589735e+01
    endloop
  endfacet
  facet normal 0.000000e+00 1.000000e+00 0.000000e+00
    outer loop
      vertex   2.025000e+02 0.000000e+00 -2.025000e+02
      vertex   1.456413e+02 0.000000e+00 -3.589735e+01
      vertex   1.477708e+02 0.000000e+00 -2.576386e+01
    endloop
  endfacet
  facet normal -0.000000e+00 1.000000e+00 0.000000e+00
    outer loop
      vertex   1.477708e+02 0.000000e+00 -2.576386e+01
      vertex   1.491962e+02 0.000000e+00 -1.550759e+01
      vertex   2.025000e+02 0.000000e+00 -2.025000e+02
    endloop
  endfacet
  facet normal 0.000000e+00 1.000000e+00 0.000000e+00
    outer loop
      vertex   2.025000e+02 0.000000e+00 -2.025000e+02
      vertex   1.491962e+02 0.000000e+00 -1.550759e+01
      vertex   1.499106e+02 0.000000e+00 -5.177421e+00
    endloop
  endfacet
  facet normal 0.000000e+00 1.000000e+00 -0.000000e+00
    outer loop
      vertex   1.491962e+02 0.000000e+00 1.550759e+01
      vertex   1.477708e+02 0.000000e+00 2.576386e+01
      vertex   2.025000e+02 0.000000e+00 2.025000e+02
    endloop
  endfacet
  facet normal 0.000000e+00 1.000000e+00 0.000000e+00
    outer loop
      vertex   2.025000e+02 0.000000e+00 2.025000e+02
      vertex   1.477708e+02 0.000000e+00 2.576386e+01
      vertex   1.456413e+02 0.000000e+00 3.589735e+01
    endloop
  endfacet
  facet normal 0.000000e+00 1.000000e+00 0.000000e+00
    outer loop
      vertex   2.025000e+02 0.000000e+00 2.025000e+02
      vertex   1.456413e+02 0.000000e+00 3.589735e+01
      vertex   1.428176e+02 0.000000e+00 4.585977e+01
    endloop
  endfacet
  facet normal 0.000000e+00 1.000000e+00 -0.000000e+00
    outer loop
      vertex   1.428176e+02 0.000000e+00 4.585977e+01
      vertex   1.393134e+02 0.000000e+00 5.560366e+01
      vertex   2.025000e+02 0.000000e+00 2.025000e+02
    endloop
  endfacet
  facet normal 0.000000e+00 1.000000e+00 0.000000e+00
    outer loop
      vertex   2.025000e+02 0.000000e+00 2.025000e+02
      vertex   1.393134e+02 0.000000e+00 5.560366e+01
      vertex   1.351453e+02 0.000000e+00 6.508256e+01
    endloop
  endfacet
  facet normal 0.000000e+00 1.000000e+00 0.000000e+00
    outer loop
      vertex   2.025000e+02 0.000000e+00 2.025000e+02
      vertex   1.351453e+02 0.000000e+00 6.508256e+01
      vertex   1.303332e+02 0.000000e+00 7.425132e+01
    endloop
  endfacet
  facet normal 0.000000e+00 1.000000e+00 -0.000000e+00
    outer loop
      vertex   1.303332e+02 0.000000e+00 7.425132e+01
      vertex   1.249000e+02 0.000000e+00 8.306623e+01
      vertex   2.025000e+02 0.000000e+00 2.025000e+02
    endloop
  endfacet
  facet normal 0.000000e+00 1.000000e+00 0.000000e+00
    outer loop
      vertex   2.025000e+02 0.000000e+00 2.025000e+02
      vertex   1.249000e+02 0.000000e+00 8.306623e+01
      vertex   1.188715e+02 0.000000e+00 9.148530e+01
    endloop
  endfacet
  facet normal 0.000000e+00 1.000000e+00 0.000000e+00
    outer loop
      vertex   2.025000e+02 0.000000e+00 2.025000e+02
      vertex   1.188715e+02 0.000000e+00 9.148530e+01
      vertex   1.122766e+02 0.000000e+00 9.946840e+01
    endloop
  endfacet
  facet normal 0.000000e+00 1.000000e+00 -0.000000e+00
    outer loop
      vertex   1.122766e+02 0.000000e+00 9.946840e+01
      vertex   1.051466e+02 0.000000e+00 1.069775e+02
      vertex   2.025000e+02 0.000000e+00 2.025000e+02
    endloop
  endfacet
  facet normal 0.000000e+00 1.000000e+00 0.000000e+00
    outer loop
      vertex   2.025000e+02 0.000000e+00 2.025000e+02
      vertex   1.051466e+02 0.000000e+00 1.069775e+02
      vertex   9.751561e+01 0.000000e+00 1.139768e+02
    endloop
  endfacet
  facet normal 0.000000e+00 1.000000e+00 0.000000e+00
    outer loop
      vertex   2.025000e+02 0.000000e+00 2.025000e+02
      vertex   9.751561e+01 0.000000e+00 1.139768e+02
      vertex   8.941987e+01 0.000000e+00 1.204329e+02
    endloop
  endfacet
  facet normal 0.000000e+00 1.000000e+00 -0.000000e+00
    outer loop
      vertex   8.941987e+01 0.000000e+00 1.204329e+02
      vertex   8.089801e+01 0.000000e+00 1.263151e+02
      vertex   2.025000e+02 0.000000e+00 2.025000e+02
    endloop
  endfacet
  facet normal 0.000000e+00 1.000000e+00 0.000000e+00
    outer loop
      vertex   2.025000e+02 0.000000e+00 2.025000e+02
      vertex   8.089801e+01 0.000000e+00 1.263151e+02
      vertex   7.199062e+01 0.000000e+00 1.315954e+02
    endloop
  endfacet
  facet normal 0.000000e+00 1.000000e+00 0.000000e+00
    outer loop
      vertex   2.025000e+02 0.000000e+00 2.025000e+02
      vertex   7.199062e+01 0.000000e+00 1.315954e+02
      vertex   6.274017e+01 0.000000e+00 1.362486e+02
    endloop
  endfacet
  facet normal 0.000000e+00 1.000000e+00 -0.000000e+00
    outer loop
      vertex   6.274017e+01 0.000000e+00 1.362486e+02
      vertex   5.319073e+01 0.000000e+00 1.402524e+02
      vertex   2.025000e+02 0.000000e+00 2.025000e+02
    endloop
  endfacet
  facet normal 0.000000e+00 1.000000e+00 0.000000e+00
    outer loop
      vertex   2.025000e+02 0.000000e+00 2.025000e+02
      vertex   5.319073e+01 0.000000e+00 1.402524e+02
      vertex   4.338782e+01 0.000000e+00 1.435879e+02
    endloop
  endfacet
  facet normal 0.000000e+00 1.000000e+00 0.000000e+00
    outer loop
      vertex   2.025000e+02 0.000000e+00 2.025000e+02
      vertex   4.338782e+01 0.000000e+00 1.435879e+02
      vertex   3.337814e+01 0.000000e+00 1.462392e+02
    endloop
  endfacet
  facet normal 0.000000e+00 1.000000e+00 -0.000000e+00
    outer loop
      vertex   3.337814e+01 0.000000e+00 1.462392e+02
      vertex   2.320940e+01 0.000000e+00 1.481935e+02
      vertex   2.025000e+02 0.000000e+00 2.025000e+02
    endloop
  endfacet
  facet normal 0.000000e+00 1.000000e+00 0.000000e+00
    outer loop
      vertex   2.025000e+02 0.000000e+00 2.025000e+02
      vertex   2.320940e+01 0.000000e+00 1.481935e+02
      vertex   1.293006e+01 0.000000e+00 1.494417e+02
    endloop
  endfacet
  facet normal 0.000000e+00 1.000000e+00 0.000000e+00
    outer loop
      vertex   2.025000e+02 0.000000e+00 2.025000e+02
      vertex   1.293006e+01 0.000000e+00 1.494417e+02
      vertex   2.589096e+00 0.000000e+00 1.499777e+02
    endloop
  endfacet
  facet normal 0.000000e+00 1.000000e+00 0.000000e+00
    outer loop
      vertex   -1.808050e+01 0.000000e+00 1.489063e+02
      vertex   -2.831064e+01 0.000000e+00 1.473041e+02
      vertex   -2.025000e+02 0.000000e+00 2.025000e+02
    endloop
  endfacet
  facet normal 0.000000e+00 1.000000e+00 0.000000e+00
    outer loop
      vertex   -2.025000e+02 0.000000e+00 2.025000e+02
      vertex   -2.831064e+01 0.000000e+00 1.473041e+02
      vertex   -3.840586e+01 0.000000e+00 1.450000e+02
    endloop
  endfacet
  facet normal 0.000000e+00 1.000000e+00 0.000000e+00
    outer loop
      vertex   -2.025000e+02 0.000000e+00 2.025000e+02
      vertex   -3.840586e+01 0.000000e+00 1.450000e+02
      vertex   -4.831807e+01 0.000000e+00 1.420048e+02
    endloop
  endfacet
  facet normal 0.000000e+00 1.000000e+00 0.000000e+00
    outer loop
      vertex   -4.831807e+01 0.000000e+00 1.420048e+02
      vertex   -5.800001e+01 0.000000e+00 1.383329e+02
      vertex   -2.025000e+02 0.000000e+00 2.025000e+02
    endloop
  endfacet
  facet normal 0.000000e+00 1.000000e+00 0.000000e+00
    outer loop
      vertex   -2.025000e+02 0.000000e+00 2.025000e+02
      vertex   -5.800001e+01 0.000000e+00 1.383329e+02
      vertex   -6.740556e+01 0.000000e+00 1.340018e+02
    endloop
  endfacet
  facet normal 0.000000e+00 1.000000e+00 0.000000e+00
    outer loop
      vertex   -2.025000e+02 0.000000e+00 2.025000e+02
      vertex   -6.740556e+01 0.000000e+00 1.340018e+02
      vertex   -7.648989e+01 0.000000e+00 1.290322e+02
    endloop
  endfacet
  facet normal 0.000000e+00 1.000000e+00 0.000000e+00
    outer loop
      vertex   -7.648989e+01 0.000000e+00 1.290322e+02
      vertex   -8.520971e+01 0.000000e+00 1.234476e+02
      vertex   -2.025000e+02 0.000000e+00 2.025000e+02
    endloop
  endfacet
  facet normal 0.000000e+00 1.000000e+00 0.000000e+00
    outer loop
      vertex   -2.025000e+02 0.000000e+00 2.025000e+02
      vertex   -8.520971e+01 0.000000e+00 1.234476e+02
      vertex   -9.352347e+01 0.000000e+00 1.172747e+02
    endloop
  endfacet
  facet normal 0.000000e+00 1.000000e+00 0.000000e+00
    outer loop
      vertex   -2.025000e+02 0.000000e+00 2.025000e+02
      vertex   -9.352347e+01 0.000000e+00 1.172747e+02
      vertex   -1.013915e+02 0.000000e+00 1.105430e+02
    endloop
  endfacet
  facet normal 0.000000e+00 1.000000e+00 0.000000e+00
    outer loop
      vertex   -1.013915e+02 0.000000e+00 1.105430e+02
      vertex   -1.087764e+02 0.000000e+00 1.032845e+02
      vertex   -2.025000e+02 0.000000e+00 2.025000e+02
    endloop
  endfacet
  facet normal 0.000000e+00 1.000000e+00 0.000000e+00
    outer loop
      vertex   -2.025000e+02 0.000000e+00 2.025000e+02
      vertex   -1.087764e+02 0.000000e+00 1.032845e+02
      vertex   -1.156430e+02 0.000000e+00 9.553377e+01
    endloop
  endfacet
  facet normal 0.000000e+00 1.000000e+00 0.000000e+00
    outer loop
      vertex   -2.025000e+02 0.000000e+00 2.025000e+02
      vertex   -1.156430e+02 0.000000e+00 9.553377e+01
      vertex   -1.219584e+02 0.000000e+00 8.732780e+01
    endloop
  endfacet
  facet normal 0.000000e+00 1.000000e+00 0.000000e+00
    outer loop
      vertex   -1.219584e+02 0.000000e+00 8.732780e+01
      vertex   -1.276927e+02 0.000000e+00 7.870567e+01
      vertex   -2.025000e+02 0.000000e+00 2.025000e+02
    endloop
  endfacet
  facet normal 0.000000e+00 1.000000e+00 0.000000e+00
    outer loop
      vertex   -2.025000e+02 0.000000e+00 2.025000e+02
      vertex   -1.276927e+02 0.000000e+00 7.870567e+01
      vertex   -1.328184e+02 0.000000e+00 6.970848e+01
    endloop
  endfacet
  facet normal 0.000000e+00 1.000000e+00 0.000000e+00
    outer loop
      vertex   -2.025000e+02 0.000000e+00 2.025000e+02
      vertex   -1.328184e+02 0.000000e+00 6.970848e+01
      vertex   -1.373112e+02 0.000000e+00 6.037909e+01
    endloop
  endfacet
  facet normal 0.000000e+00 1.000000e+00 0.000000e+00
    outer loop
      vertex   -1.373112e+02 0.000000e+00 6.037909e+01
      vertex   -1.411496e+02 0.000000e+00 5.076196e+01
      vertex   -2.025000e+02 0.000000e+00 2.025000e+02
    endloop
  endfacet
  facet normal 0.000000e+00 1.000000e+00 0.000000e+00
    outer loop
      vertex   -2.025000e+02 0.000000e+00 2.025000e+02
      vertex   -1.411496e+02 0.000000e+00 5.076196e+01
      vertex   -1.443155e+02 0.000000e+00 4.090293e+01
    endloop
  endfacet
  facet normal 0.000000e+00 1.000000e+00 0.000000e+00
    outer loop
      vertex   -2.025000e+02 0.000000e+00 2.025000e+02
      vertex   -1.443155e+02 0.000000e+00 4.090293e+01
      vertex   -1.467935e+02 0.000000e+00 3.084899e+01
    endloop
  endfacet
  facet normal 0.000000e+00 1.000000e+00 0.000000e+00
    outer loop
      vertex   -1.467935e+02 0.000000e+00 3.084899e+01
      vertex   -1.485721e+02 0.000000e+00 2.064803e+01
      vertex   -2.025000e+02 0.000000e+00 2.025000e+02
    endloop
  endfacet
  facet normal 0.000000e+00 1.000000e+00 0.000000e+00
    outer loop
      vertex   -2.025000e+02 0.000000e+00 2.025000e+02
      vertex   -1.485721e+02 0.000000e+00 2.064803e+01
      vertex   -1.496426e+02 0.000000e+00 1.034867e+01
    endloop
  endfacet
  facet normal 0.000000e+00 1.000000e+00 0.000000e+00
    outer loop
      vertex   -2.025000e+02 0.000000e+00 2.025000e+02
      vertex   -1.496426e+02 0.000000e+00 1.034867e+01
      vertex   -1.500000e+02 0.000000e+00 1.836970e-14
    endloop
  endfacet
  facet normal 0.000000e+00 0.000000e+00 -1.000000e+00
    outer loop
      vertex   -2.025000e+02 0.000000e+00 -2.025000e+02
      vertex   2.025000e+02 0.000000e+00 -2.025000e+02
      vertex   -2.025000e+02 -5.000000e+00 -2.025000e+02
    endloop
  endfacet
  facet normal 0.000000e+00 0.000000e+00 -1.000000e+00
    outer loop
      vertex   -2.025000e+02 -5.000000e+00 -2.025000e+02
      vertex   2.025000e+02 0.000000e+00 -2.025000e+02
      vertex   2.025000e+02 -5.000000e+00 -2.025000e+02
    endloop
  endfacet
  facet normal -1.000000e+00 -0.000000e+00 -0.000000e+00
    outer loop
      vertex   -2.025000e+02 0.000000e+00 2.025000e+02
      vertex   -2.025000e+02 0.000000e+00 -2.025000e+02
      vertex   -2.025000e+02 -5.000000e+00 2.025000e+02
    endloop
  endfacet
  facet normal -1.000000e+00 0.000000e+00 0.000000e+00
    outer loop
      vertex   -2.025000e+02 -5.000000e+00 2.025000e+02
      vertex   -2.025000e+02 0.000000e+00 -2.025000e+02
      vertex   -2.025000e+02 -5.000000e+00 -2.025000e+02
    endloop
  endfacet
  facet normal 1.403541e-16 0.000000e+00 1.000000e+00
    outer loop
      vertex   2.025000e+02 0.000000e+00 2.025000e+02
      vertex   -2.025000e+02 0.000000e+00 2.025000e+02
      vertex   2.025000e+02 -5.000000e+00 2.025000e+02
    endloop
  endfacet
  facet normal 1.403541e-16 0.000000e+00 1.000000e+00
    outer loop
      vertex   2.025000e+02 -5.000000e+00 2.025000e+02
      vertex   -2.025000e+02 0.000000e+00 2.025000e+02
      vertex   -2.025000e+02 -5.000000e+00 2.025000e+02
    endloop
  endfacet
  facet normal 1.000000e+00 0.000000e+00 -0.000000e+00
    outer loop
      vertex   2.025000e+02 0.000000e+00 -2.025000e+02
      vertex   2.025000e+02 0.000000e+00 2.025000e+02
      vertex   2.025000e+02 -5.000000e+00 -2.025000e+02
    endloop
  endfacet
  facet normal 1.000000e+00 0.000000e+00 0.000000e+00
    outer loop
      vertex   2.025000e+02 -5.000000e+00 -2.025000e+02
      vertex   2.025000e+02 0.000000e+00 2.025000e+02
      vertex   2.025000e+02 -5.000000e+00 2.025000e+02
    endloop
  endfacet
  facet normal 0.000000e+00 -1.000000e+00 0.000000e+00
    outer loop
      vertex   2.025000e+02 -5.000000e+00 -2.025000e+02
      vertex   2.025000e+02 -5.000000e+00 2.025000e+02
      vertex   -2.025000e+02 -5.000000e+00 -2.025000e+02
    endloop
  endfacet
  facet normal 0.000000e+00 -1.000000e+00 0.000000e+00
    outer loop
      vertex   -2.025000e+02 -5.000000e+00 -2.025000e+02
      vertex   2.025000e+02 -5.000000e+00 2.025000e+02
      vertex   -2.025000e+02 -5.000000e+00 2.025000e+02
    endloop
  endfacet
  facet normal -7.061642e-01 7.073765e-01 -3.083179e-02
    outer loop
      vertex   -9.463850e+01 5.500000e+01 -8.279796e+00
      vertex   -1.496426e+02 0.000000e+00 -1.034867e+01
      vertex   -9.500000e+01 5.500000e+01 1.163414e-14
    endloop
  endfacet
  facet normal -7.068960e-01 7.068960e-01 -2.441387e-02
    outer loop
      vertex   -9.500000e+01 5.500000e+01 1.163414e-14
      vertex   -1.496426e+02 0.000000e+00 -1.034867e+01
      vertex   -1.500000e+02 0.000000e+00 1.836970e-14
    endloop
  endfacet
  facet normal -7.068960e-01 7.068960e-01 2.441387e-02
    outer loop
      vertex   -9.500000e+01 5.500000e+01 1.163414e-14
      vertex   -1.500000e+02 0.000000e+00 1.836970e-14
      vertex   -1.496426e+02 0.000000e+00 1.034867e+01
    endloop
  endfacet
  facet normal -7.038087e-01 7.066129e-01 -7.315451e-02
    outer loop
      vertex   -1.496426e+02 0.000000e+00 -1.034867e+01
      vertex   -9.463850e+01 5.500000e+01 -8.279796e+00
      vertex   -1.485721e+02 0.000000e+00 -2.064803e+01
    endloop
  endfacet
  facet normal -7.005061e-01 7.076624e-01 -9.222337e-02
    outer loop
      vertex   -1.485721e+02 0.000000e+00 -2.064803e+01
      vertex   -9.463850e+01 5.500000e+01 -8.279796e+00
      vertex   -9.355674e+01 5.500000e+01 -1.649658e+01
    endloop
  endfacet
  facet normal -6.971636e-01 7.065327e-01 -1.215505e-01
    outer loop
      vertex   -1.485721e+02 0.000000e+00 -2.064803e+01
      vertex   -9.355674e+01 5.500000e+01 -1.649658e+01
      vertex   -1.467935e+02 0.000000e+00 -3.084899e+01
    endloop
  endfacet
  facet normal -6.898355e-01 7.076288e-01 -1.529328e-01
    outer loop
      vertex   -1.467935e+02 0.000000e+00 -3.084899e+01
      vertex   -9.355674e+01 5.500000e+01 -1.649658e+01
      vertex   -9.176295e+01 5.500000e+01 -2.458781e+01
    endloop
  endfacet
  facet normal -6.869973e-01 7.066556e-01 -1.693296e-01
    outer loop
      vertex   -1.467935e+02 0.000000e+00 -3.084899e+01
      vertex   -9.176295e+01 5.500000e+01 -2.458781e+01
      vertex   -1.443155e+02 0.000000e+00 -4.090293e+01
    endloop
  endfacet
  facet normal -6.742187e-01 7.072755e-01 -2.125804e-01
    outer loop
      vertex   -1.443155e+02 0.000000e+00 -4.090293e+01
      vertex   -9.176295e+01 5.500000e+01 -2.458781e+01
      vertex   -8.927080e+01 5.500000e+01 -3.249191e+01
    endloop
  endfacet
  facet normal -6.733682e-01 7.069814e-01 -2.162234e-01
    outer loop
      vertex   -1.443155e+02 0.000000e+00 -4.090293e+01
      vertex   -8.927080e+01 5.500000e+01 -3.249191e+01
      vertex   -1.411496e+02 0.000000e+00 -5.076196e+01
    endloop
  endfacet
  facet normal -6.569965e-01 7.068196e-01 -2.622246e-01
    outer loop
      vertex   -1.411496e+02 0.000000e+00 -5.076196e+01
      vertex   -8.927080e+01 5.500000e+01 -3.249191e+01
      vertex   -1.373112e+02 0.000000e+00 -6.037909e+01
    endloop
  endfacet
  facet normal -6.529519e-01 7.074633e-01 -2.704615e-01
    outer loop
      vertex   -1.373112e+02 0.000000e+00 -6.037909e+01
      vertex   -8.927080e+01 5.500000e+01 -3.249191e+01
      vertex   -8.609924e+01 5.500000e+01 -4.014873e+01
    endloop
  endfacet
  facet normal -6.375563e-01 7.065791e-01 -3.070309e-01
    outer loop
      vertex   -1.373112e+02 0.000000e+00 -6.037909e+01
      vertex   -8.609924e+01 5.500000e+01 -4.014873e+01
      vertex   -1.328184e+02 0.000000e+00 -6.970848e+01
    endloop
  endfacet
  facet normal -6.267008e-01 7.076819e-01 -3.262398e-01
    outer loop
      vertex   -1.328184e+02 0.000000e+00 -6.970848e+01
      vertex   -8.609924e+01 5.500000e+01 -4.014873e+01
      vertex   -8.227241e+01 5.500000e+01 -4.750000e+01
    endloop
  endfacet
  facet normal -6.148872e-01 7.065417e-01 -3.503036e-01
    outer loop
      vertex   -1.328184e+02 0.000000e+00 -6.970848e+01
      vertex   -8.227241e+01 5.500000e+01 -4.750000e+01
      vertex   -1.276927e+02 0.000000e+00 -7.870567e+01
    endloop
  endfacet
  facet normal -5.959676e-01 7.075810e-01 -3.796732e-01
    outer loop
      vertex   -1.276927e+02 0.000000e+00 -7.870567e+01
      vertex   -8.227241e+01 5.500000e+01 -4.750000e+01
      vertex   -7.781944e+01 5.500000e+01 -5.448976e+01
    endloop
  endfacet
  facet normal -5.891164e-01 7.067074e-01 -3.917990e-01
    outer loop
      vertex   -1.276927e+02 0.000000e+00 -7.870567e+01
      vertex   -7.781944e+01 5.500000e+01 -5.448976e+01
      vertex   -1.219584e+02 0.000000e+00 -8.732780e+01
    endloop
  endfacet
  facet normal -5.609430e-01 7.071603e-01 -4.304267e-01
    outer loop
      vertex   -1.219584e+02 0.000000e+00 -8.732780e+01
      vertex   -7.781944e+01 5.500000e+01 -5.448976e+01
      vertex   -7.277422e+01 5.500000e+01 -6.106482e+01
    endloop
  endfacet
  facet normal -5.603903e-01 7.070758e-01 -4.312848e-01
    outer loop
      vertex   -1.219584e+02 0.000000e+00 -8.732780e+01
      vertex   -7.277422e+01 5.500000e+01 -6.106482e+01
      vertex   -1.156430e+02 0.000000e+00 -9.553377e+01
    endloop
  endfacet
  facet normal -5.295424e-01 7.067521e-01 -4.691336e-01
    outer loop
      vertex   -1.156430e+02 0.000000e+00 -9.553377e+01
      vertex   -7.277422e+01 5.500000e+01 -6.106482e+01
      vertex   -1.087764e+02 0.000000e+00 -1.032845e+02
    endloop
  endfacet
  facet normal -5.210172e-01 7.075359e-01 -4.774243e-01
    outer loop
      vertex   -1.087764e+02 0.000000e+00 -1.032845e+02
      vertex   -7.277422e+01 5.500000e+01 -6.106482e+01
      vertex   -6.717514e+01 5.500000e+01 -6.717514e+01
    endloop
  endfacet
  facet normal -4.960530e-01 7.065543e-01 -5.046904e-01
    outer loop
      vertex   -1.087764e+02 0.000000e+00 -1.032845e+02
      vertex   -6.717514e+01 5.500000e+01 -6.717514e+01
      vertex   -1.013915e+02 0.000000e+00 -1.105430e+02
    endloop
  endfacet
  facet normal -4.773220e-01 7.076872e-01 -5.209055e-01
    outer loop
      vertex   -1.013915e+02 0.000000e+00 -1.105430e+02
      vertex   -6.717514e+01 5.500000e+01 -6.717514e+01
      vertex   -6.106482e+01 5.500000e+01 -7.277422e+01
    endloop
  endfacet
  facet normal -4.600484e-01 7.065597e-01 -5.377071e-01
    outer loop
      vertex   -1.013915e+02 0.000000e+00 -1.105430e+02
      vertex   -6.106482e+01 5.500000e+01 -7.277422e+01
      vertex   -9.352347e+01 0.000000e+00 -1.172747e+02
    endloop
  endfacet
  facet normal -4.302082e-01 7.075191e-01 -5.606582e-01
    outer loop
      vertex   -9.352347e+01 0.000000e+00 -1.172747e+02
      vertex   -6.106482e+01 5.500000e+01 -7.277422e+01
      vertex   -5.448976e+01 5.500000e+01 -7.781944e+01
    endloop
  endfacet
  facet normal -4.217311e-01 7.067681e-01 -5.679980e-01
    outer loop
      vertex   -9.352347e+01 0.000000e+00 -1.172747e+02
      vertex   -5.448976e+01 5.500000e+01 -7.781944e+01
      vertex   -8.520971e+01 0.000000e+00 -1.234476e+02
    endloop
  endfacet
  facet normal -3.813867e-01 7.070514e-01 -5.955019e-01
    outer loop
      vertex   -8.520971e+01 0.000000e+00 -1.234476e+02
      vertex   -5.448976e+01 5.500000e+01 -7.781944e+01
      vertex   -7.648989e+01 0.000000e+00 -1.290322e+02
    endloop
  endfacet
  facet normal -3.798832e-01 7.071905e-01 -5.962972e-01
    outer loop
      vertex   -7.648989e+01 0.000000e+00 -1.290322e+02
      vertex   -5.448976e+01 5.500000e+01 -7.781944e+01
      vertex   -4.750000e+01 5.500000e+01 -8.227241e+01
    endloop
  endfacet
  facet normal -3.395652e-01 7.066936e-01 -6.207090e-01
    outer loop
      vertex   -7.648989e+01 0.000000e+00 -1.290322e+02
      vertex   -4.750000e+01 5.500000e+01 -8.227241e+01
      vertex   -6.740556e+01 0.000000e+00 -1.340018e+02
    endloop
  endfacet
  facet normal -3.262803e-01 7.075943e-01 -6.267786e-01
    outer loop
      vertex   -6.740556e+01 0.000000e+00 -1.340018e+02
      vertex   -4.750000e+01 5.500000e+01 -8.227241e+01
      vertex   -4.014873e+01 5.500000e+01 -8.609924e+01
    endloop
  endfacet
  facet normal -2.959975e-01 7.065386e-01 -6.427976e-01
    outer loop
      vertex   -6.740556e+01 0.000000e+00 -1.340018e+02
      vertex   -4.014873e+01 5.500000e+01 -8.609924e+01
      vertex   -5.800001e+01 0.000000e+00 -1.383329e+02
    endloop
  endfacet
  facet normal -2.703791e-01 7.076783e-01 -6.527530e-01
    outer loop
      vertex   -5.800001e+01 0.000000e+00 -1.383329e+02
      vertex   -4.014873e+01 5.500000e+01 -8.609924e+01
      vertex   -3.249191e+01 5.500000e+01 -8.927080e+01
    endloop
  endfacet
  facet normal -2.509278e-01 7.065867e-01 -6.616423e-01
    outer loop
      vertex   -5.800001e+01 0.000000e+00 -1.383329e+02
      vertex   -3.249191e+01 5.500000e+01 -8.927080e+01
      vertex   -4.831807e+01 0.000000e+00 -1.420048e+02
    endloop
  endfacet
  facet normal -2.125300e-01 7.074429e-01 -6.740590e-01
    outer loop
      vertex   -4.831807e+01 0.000000e+00 -1.420048e+02
      vertex   -3.249191e+01 5.500000e+01 -8.927080e+01
      vertex   -2.458781e+01 5.500000e+01 -9.176295e+01
    endloop
  endfacet
  facet normal -2.046099e-01 7.068378e-01 -6.771374e-01
    outer loop
      vertex   -4.831807e+01 0.000000e+00 -1.420048e+02
      vertex   -2.458781e+01 5.500000e+01 -9.176295e+01
      vertex   -3.840586e+01 0.000000e+00 -1.450000e+02
    endloop
  endfacet
  facet normal -1.573789e-01 7.069592e-01 -6.895220e-01
    outer loop
      vertex   -3.840586e+01 0.000000e+00 -1.450000e+02
      vertex   -2.458781e+01 5.500000e+01 -9.176295e+01
      vertex   -2.831064e+01 0.000000e+00 -1.473041e+02
    endloop
  endfacet
  facet normal -1.530036e-01 7.073021e-01 -6.901548e-01
    outer loop
      vertex   -2.831064e+01 0.000000e+00 -1.473041e+02
      vertex   -2.458781e+01 5.500000e+01 -9.176295e+01
      vertex   -1.649658e+01 5.500000e+01 -9.355674e+01
    endloop
  endfacet
  facet normal -1.094817e-01 7.066441e-01 -6.990478e-01
    outer loop
      vertex   -2.831064e+01 0.000000e+00 -1.473041e+02
      vertex   -1.649658e+01 5.500000e+01 -9.355674e+01
      vertex   -1.808050e+01 0.000000e+00 -1.489063e+02
    endloop
  endfacet
  facet normal -9.222650e-02 7.076385e-01 -7.005298e-01
    outer loop
      vertex   -1.808050e+01 0.000000e+00 -1.489063e+02
      vertex   -1.649658e+01 5.500000e+01 -9.355674e+01
      vertex   -8.279796e+00 5.500000e+01 -9.463850e+01
    endloop
  endfacet
  facet normal -6.100240e-02 7.065318e-01 -7.050472e-01
    outer loop
      vertex   -1.808050e+01 0.000000e+00 -1.489063e+02
      vertex   -8.279796e+00 5.500000e+01 -9.463850e+01
      vertex   -7.764203e+00 0.000000e+00 -1.497989e+02
    endloop
  endfacet
  facet normal -3.081962e-02 7.076553e-01 -7.058853e-01
    outer loop
      vertex   -7.764203e+00 0.000000e+00 -1.497989e+02
      vertex   -8.279796e+00 5.500000e+01 -9.463850e+01
      vertex   5.817072e-15 5.500000e+01 -9.500000e+01
    endloop
  endfacet
  facet normal -1.221347e-02 7.066227e-01 -7.074851e-01
    outer loop
      vertex   -7.764203e+00 0.000000e+00 -1.497989e+02
      vertex   5.817072e-15 5.500000e+01 -9.500000e+01
      vertex   2.589096e+00 0.000000e+00 -1.499777e+02
    endloop
  endfacet
  facet normal 3.083284e-02 7.073526e-01 -7.061881e-01
    outer loop
      vertex   2.589096e+00 0.000000e+00 -1.499777e+02
      vertex   5.817072e-15 5.500000e+01 -9.500000e+01
      vertex   8.279796e+00 5.500000e+01 -9.463850e+01
    endloop
  endfacet
  facet normal 3.661065e-02 7.069165e-01 -7.063488e-01
    outer loop
      vertex   2.589096e+00 0.000000e+00 -1.499777e+02
      vertex   8.279796e+00 5.500000e+01 -9.463850e+01
      vertex   1.293006e+01 0.000000e+00 -1.494417e+02
    endloop
  endfacet
  facet normal 8.526010e-02 7.068761e-01 -7.021801e-01
    outer loop
      vertex   1.293006e+01 0.000000e+00 -1.494417e+02
      vertex   8.279796e+00 5.500000e+01 -9.463850e+01
      vertex   2.320940e+01 0.000000e+00 -1.481935e+02
    endloop
  endfacet
  facet normal 9.225773e-02 7.073995e-01 -7.007670e-01
    outer loop
      vertex   2.320940e+01 0.000000e+00 -1.481935e+02
      vertex   8.279796e+00 5.500000e+01 -9.463850e+01
      vertex   1.649658e+01 5.500000e+01 -9.355674e+01
    endloop
  endfacet
  facet normal 1.335525e-01 7.066036e-01 -6.948922e-01
    outer loop
      vertex   2.320940e+01 0.000000e+00 -1.481935e+02
      vertex   1.649658e+01 5.500000e+01 -9.355674e+01
      vertex   3.337814e+01 0.000000e+00 -1.462392e+02
    endloop
  endfacet
  facet normal 1.529242e-01 7.076686e-01 -6.897966e-01
    outer loop
      vertex   3.337814e+01 0.000000e+00 -1.462392e+02
      vertex   1.649658e+01 5.500000e+01 -9.355674e+01
      vertex   2.458781e+01 5.500000e+01 -9.176295e+01
    endloop
  endfacet
  facet normal 1.811935e-01 7.065341e-01 -6.840896e-01
    outer loop
      vertex   3.337814e+01 0.000000e+00 -1.462392e+02
      vertex   2.458781e+01 5.500000e+01 -9.176295e+01
      vertex   4.338782e+01 0.000000e+00 -1.435879e+02
    endloop
  endfacet
  facet normal 2.124772e-01 7.076182e-01 -6.738916e-01
    outer loop
      vertex   4.338782e+01 0.000000e+00 -1.435879e+02
      vertex   2.458781e+01 5.500000e+01 -9.176295e+01
      vertex   3.249191e+01 5.500000e+01 -8.927080e+01
    endloop
  endfacet
  facet normal 2.279149e-01 7.066677e-01 -6.698325e-01
    outer loop
      vertex   4.338782e+01 0.000000e+00 -1.435879e+02
      vertex   3.249191e+01 5.500000e+01 -8.927080e+01
      vertex   5.319073e+01 0.000000e+00 -1.402524e+02
    endloop
  endfacet
  facet normal 2.705440e-01 7.072481e-01 -6.531509e-01
    outer loop
      vertex   5.319073e+01 0.000000e+00 -1.402524e+02
      vertex   3.249191e+01 5.500000e+01 -8.927080e+01
      vertex   4.014873e+01 5.500000e+01 -8.609924e+01
    endloop
  endfacet
  facet normal 2.734543e-01 7.070042e-01 -6.522023e-01
    outer loop
      vertex   5.319073e+01 0.000000e+00 -1.402524e+02
      vertex   4.014873e+01 5.500000e+01 -8.609924e+01
      vertex   6.274017e+01 0.000000e+00 -1.362486e+02
    endloop
  endfacet
  facet normal 3.178898e-01 7.068019e-01 -6.319630e-01
    outer loop
      vertex   6.274017e+01 0.000000e+00 -1.362486e+02
      vertex   4.014873e+01 5.500000e+01 -8.609924e+01
      vertex   7.199062e+01 0.000000e+00 -1.315954e+02
    endloop
  endfacet
  facet normal 3.263319e-01 7.074828e-01 -6.268777e-01
    outer loop
      vertex   7.199062e+01 0.000000e+00 -1.315954e+02
      vertex   4.014873e+01 5.500000e+01 -8.609924e+01
      vertex   4.750000e+01 5.500000e+01 -8.227241e+01
    endloop
  endfacet
  facet normal 3.608493e-01 7.065721e-01 -6.087230e-01
    outer loop
      vertex   7.199062e+01 0.000000e+00 -1.315954e+02
      vertex   4.750000e+01 5.500000e+01 -8.227241e+01
      vertex   8.089801e+01 0.000000e+00 -1.263151e+02
    endloop
  endfacet
  facet normal 3.796175e-01 7.076845e-01 -5.958801e-01
    outer loop
      vertex   8.089801e+01 0.000000e+00 -1.263151e+02
      vertex   4.750000e+01 5.500000e+01 -8.227241e+01
      vertex   5.448976e+01 5.500000e+01 -7.781944e+01
    endloop
  endfacet
  facet normal 4.020011e-01 7.065453e-01 -5.823992e-01
    outer loop
      vertex   8.089801e+01 0.000000e+00 -1.263151e+02
      vertex   5.448976e+01 5.500000e+01 -7.781944e+01
      vertex   8.941987e+01 0.000000e+00 -1.204329e+02
    endloop
  endfacet
  facet normal 4.301791e-01 7.075669e-01 -5.606203e-01
    outer loop
      vertex   8.941987e+01 0.000000e+00 -1.204329e+02
      vertex   5.448976e+01 5.500000e+01 -7.781944e+01
      vertex   6.106482e+01 5.500000e+01 -7.277422e+01
    endloop
  endfacet
  facet normal 4.411138e-01 7.067217e-01 -5.531392e-01
    outer loop
      vertex   8.941987e+01 0.000000e+00 -1.204329e+02
      vertex   6.106482e+01 5.500000e+01 -7.277422e+01
      vertex   9.751561e+01 0.000000e+00 -1.139768e+02
    endloop
  endfacet
  facet normal 4.776992e-01 7.071293e-01 -5.213172e-01
    outer loop
      vertex   9.751561e+01 0.000000e+00 -1.139768e+02
      vertex   6.106482e+01 5.500000e+01 -7.277422e+01
      vertex   6.717514e+01 5.500000e+01 -6.717514e+01
    endloop
  endfacet
  facet normal 4.779684e-01 7.071008e-01 -5.211091e-01
    outer loop
      vertex   9.751561e+01 0.000000e+00 -1.139768e+02
      vertex   6.717514e+01 5.500000e+01 -6.717514e+01
      vertex   1.051466e+02 0.000000e+00 -1.069775e+02
    endloop
  endfacet
  facet normal 5.130454e-01 7.067366e-01 -4.871425e-01
    outer loop
      vertex   1.051466e+02 0.000000e+00 -1.069775e+02
      vertex   6.717514e+01 5.500000e+01 -6.717514e+01
      vertex   1.122766e+02 0.000000e+00 -9.946840e+01
    endloop
  endfacet
  facet normal 5.210055e-01 7.075518e-01 -4.774136e-01
    outer loop
      vertex   1.122766e+02 0.000000e+00 -9.946840e+01
      vertex   6.717514e+01 5.500000e+01 -6.717514e+01
      vertex   7.277422e+01 5.500000e+01 -6.106482e+01
    endloop
  endfacet
  facet normal 5.455755e-01 7.065495e-01 -4.507052e-01
    outer loop
      vertex   1.122766e+02 0.000000e+00 -9.946840e+01
      vertex   7.277422e+01 5.500000e+01 -6.106482e+01
      vertex   1.188715e+02 0.000000e+00 -9.148530e+01
    endloop
  endfacet
  facet normal 5.605254e-01 7.076863e-01 -4.301063e-01
    outer loop
      vertex   1.188715e+02 0.000000e+00 -9.148530e+01
      vertex   7.277422e+01 5.500000e+01 -6.106482e+01
      vertex   7.781944e+01 5.500000e+01 -5.448976e+01
    endloop
  endfacet
  facet normal 5.753572e-01 7.065656e-01 -4.119820e-01
    outer loop
      vertex   1.188715e+02 0.000000e+00 -9.148530e+01
      vertex   7.781944e+01 5.500000e+01 -5.448976e+01
      vertex   1.249000e+02 0.000000e+00 -8.306623e+01
    endloop
  endfacet
  facet normal 5.960348e-01 7.075014e-01 -3.797161e-01
    outer loop
      vertex   1.249000e+02 0.000000e+00 -8.306623e+01
      vertex   7.781944e+01 5.500000e+01 -5.448976e+01
      vertex   8.227241e+01 5.500000e+01 -4.750000e+01
    endloop
  endfacet
  facet normal 6.022230e-01 7.067847e-01 -3.711910e-01
    outer loop
      vertex   1.249000e+02 0.000000e+00 -8.306623e+01
      vertex   8.227241e+01 5.500000e+01 -4.750000e+01
      vertex   1.303332e+02 0.000000e+00 -7.425132e+01
    endloop
  endfacet
  facet normal 6.261822e-01 7.070275e-01 -3.286458e-01
    outer loop
      vertex   1.303332e+02 0.000000e+00 -7.425132e+01
      vertex   8.227241e+01 5.500000e+01 -4.750000e+01
      vertex   1.351453e+02 0.000000e+00 -6.508256e+01
    endloop
  endfacet
  facet normal 6.271112e-01 7.072197e-01 -3.264534e-01
    outer loop
      vertex   1.351453e+02 0.000000e+00 -6.508256e+01
      vertex   8.227241e+01 5.500000e+01 -4.750000e+01
      vertex   8.609924e+01 5.500000e+01 -4.014873e+01
    endloop
  endfacet
  facet normal 6.476813e-01 7.066804e-01 -2.848013e-01
    outer loop
      vertex   1.351453e+02 0.000000e+00 -6.508256e+01
      vertex   8.609924e+01 5.500000e+01 -4.014873e+01
      vertex   1.393134e+02 0.000000e+00 -5.560366e+01
    endloop
  endfacet
  facet normal 6.528193e-01 7.076067e-01 -2.704066e-01
    outer loop
      vertex   1.393134e+02 0.000000e+00 -5.560366e+01
      vertex   8.609924e+01 5.500000e+01 -4.014873e+01
      vertex   8.927080e+01 5.500000e+01 -3.249191e+01
    endloop
  endfacet
  facet normal 6.659225e-01 7.065360e-01 -2.394872e-01
    outer loop
      vertex   1.393134e+02 0.000000e+00 -5.560366e+01
      vertex   8.927080e+01 5.500000e+01 -3.249191e+01
      vertex   1.428176e+02 0.000000e+00 -4.585977e+01
    endloop
  endfacet
  facet normal 6.738384e-01 7.076739e-01 -2.124604e-01
    outer loop
      vertex   1.428176e+02 0.000000e+00 -4.585977e+01
      vertex   8.927080e+01 5.500000e+01 -3.249191e+01
      vertex   9.176295e+01 5.500000e+01 -2.458781e+01
    endloop
  endfacet
  facet normal 6.808017e-01 7.065949e-01 -1.929578e-01
    outer loop
      vertex   1.428176e+02 0.000000e+00 -4.585977e+01
      vertex   9.176295e+01 5.500000e+01 -2.458781e+01
      vertex   1.456413e+02 0.000000e+00 -3.589735e+01
    endloop
  endfacet
  facet normal 6.900380e-01 7.074217e-01 -1.529777e-01
    outer loop
      vertex   1.456413e+02 0.000000e+00 -3.589735e+01
      vertex   9.176295e+01 5.500000e+01 -2.458781e+01
      vertex   9.355674e+01 5.500000e+01 -1.649658e+01
    endloop
  endfacet
  facet normal 6.922360e-01 7.068567e-01 -1.454749e-01
    outer loop
      vertex   1.456413e+02 0.000000e+00 -3.589735e+01
      vertex   9.355674e+01 5.500000e+01 -1.649658e+01
      vertex   1.477708e+02 0.000000e+00 -2.576386e+01
    endloop
  endfacet
  facet normal 7.005430e-01 7.069376e-01 -9.735902e-02
    outer loop
      vertex   1.477708e+02 0.000000e+00 -2.576386e+01
      vertex   9.355674e+01 5.500000e+01 -1.649658e+01
      vertex   1.491962e+02 0.000000e+00 -1.550759e+01
    endloop
  endfacet
  facet normal 7.008382e-01 7.073278e-01 -9.226710e-02
    outer loop
      vertex   1.491962e+02 0.000000e+00 -1.550759e+01
      vertex   9.355674e+01 5.500000e+01 -1.649658e+01
      vertex   9.463850e+01 5.500000e+01 -8.279796e+00
    endloop
  endfacet
  facet normal 7.058942e-01 7.066331e-01 -4.881676e-02
    outer loop
      vertex   1.491962e+02 0.000000e+00 -1.550759e+01
      vertex   9.463850e+01 5.500000e+01 -8.279796e+00
      vertex   1.499106e+02 0.000000e+00 -5.177421e+00
    endloop
  endfacet
  facet normal 7.058933e-01 7.076474e-01 -3.081997e-02
    outer loop
      vertex   1.499106e+02 0.000000e+00 -5.177421e+00
      vertex   9.463850e+01 5.500000e+01 -8.279796e+00
      vertex   9.500000e+01 5.500000e+01 0.000000e+00
    endloop
  endfacet
  facet normal 7.076816e-01 7.065315e-01 -0.000000e+00
    outer loop
      vertex   1.499106e+02 0.000000e+00 -5.177421e+00
      vertex   9.500000e+01 5.500000e+01 0.000000e+00
      vertex   1.499106e+02 0.000000e+00 5.177421e+00
    endloop
  endfacet
  facet normal 7.058933e-01 7.076474e-01 3.081997e-02
    outer loop
      vertex   1.499106e+02 0.000000e+00 5.177421e+00
      vertex   9.500000e+01 5.500000e+01 0.000000e+00
      vertex   9.463850e+01 5.500000e+01 8.279796e+00
    endloop
  endfacet
  facet normal 7.058942e-01 7.066331e-01 4.881676e-02
    outer loop
      vertex   1.499106e+02 0.000000e+00 5.177421e+00
      vertex   9.463850e+01 5.500000e+01 8.279796e+00
      vertex   1.491962e+02 0.000000e+00 1.550759e+01
    endloop
  endfacet
  facet normal 7.008382e-01 7.073278e-01 9.226710e-02
    outer loop
      vertex   1.491962e+02 0.000000e+00 1.550759e+01
      vertex   9.463850e+01 5.500000e+01 8.279796e+00
      vertex   9.355674e+01 5.500000e+01 1.649658e+01
    endloop
  endfacet
  facet normal 7.005430e-01 7.069376e-01 9.735902e-02
    outer loop
      vertex   1.491962e+02 0.000000e+00 1.550759e+01
      vertex   9.355674e+01 5.500000e+01 1.649658e+01
      vertex   1.477708e+02 0.000000e+00 2.576386e+01
    endloop
  endfacet
  facet normal 6.922360e-01 7.068567e-01 1.454749e-01
    outer loop
      vertex   1.477708e+02 0.000000e+00 2.576386e+01
      vertex   9.355674e+01 5.500000e+01 1.649658e+01
      vertex   1.456413e+02 0.000000e+00 3.589735e+01
    endloop
  endfacet
  facet normal 6.900380e-01 7.074217e-01 1.529777e-01
    outer loop
      vertex   1.456413e+02 0.000000e+00 3.589735e+01
      vertex   9.355674e+01 5.500000e+01 1.649658e+01
      vertex   9.176295e+01 5.500000e+01 2.458781e+01
    endloop
  endfacet
  facet normal 6.808017e-01 7.065949e-01 1.929578e-01
    outer loop
      vertex   1.456413e+02 0.000000e+00 3.589735e+01
      vertex   9.176295e+01 5.500000e+01 2.458781e+01
      vertex   1.428176e+02 0.000000e+00 4.585977e+01
    endloop
  endfacet
  facet normal 6.738384e-01 7.076739e-01 2.124604e-01
    outer loop
      vertex   1.428176e+02 0.000000e+00 4.585977e+01
      vertex   9.176295e+01 5.500000e+01 2.458781e+01
      vertex   8.927080e+01 5.500000e+01 3.249191e+01
    endloop
  endfacet
  facet normal 6.659225e-01 7.065360e-01 2.394872e-01
    outer loop
      vertex   1.428176e+02 0.000000e+00 4.585977e+01
      vertex   8.927080e+01 5.500000e+01 3.249191e+01
      vertex   1.393134e+02 0.000000e+00 5.560366e+01
    endloop
  endfacet
  facet normal 6.528193e-01 7.076067e-01 2.704066e-01
    outer loop
      vertex   1.393134e+02 0.000000e+00 5.560366e+01
      vertex   8.927080e+01 5.500000e+01 3.249191e+01
      vertex   8.609924e+01 5.500000e+01 4.014873e+01
    endloop
  endfacet
  facet normal 6.476813e-01 7.066804e-01 2.848013e-01
    outer loop
      vertex   1.393134e+02 0.000000e+00 5.560366e+01
      vertex   8.609924e+01 5.500000e+01 4.014873e+01
      vertex   1.351453e+02 0.000000e+00 6.508256e+01
    endloop
  endfacet
  facet normal 6.271112e-01 7.072197e-01 3.264534e-01
    outer loop
      vertex   1.351453e+02 0.000000e+00 6.508256e+01
      vertex   8.609924e+01 5.500000e+01 4.014873e+01
      vertex   8.227241e+01 5.500000e+01 4.750000e+01
    endloop
  endfacet
  facet normal 6.261822e-01 7.070275e-01 3.286458e-01
    outer loop
      vertex   1.351453e+02 0.000000e+00 6.508256e+01
      vertex   8.227241e+01 5.500000e+01 4.750000e+01
      vertex   1.303332e+02 0.000000e+00 7.425132e+01
    endloop
  endfacet
  facet normal 6.022230e-01 7.067847e-01 3.711910e-01
    outer loop
      vertex   1.303332e+02 0.000000e+00 7.425132e+01
      vertex   8.227241e+01 5.500000e+01 4.750000e+01
      vertex   1.249000e+02 0.000000e+00 8.306623e+01
    endloop
  endfacet
  facet normal 5.960348e-01 7.075014e-01 3.797161e-01
    outer loop
      vertex   1.249000e+02 0.000000e+00 8.306623e+01
      vertex   8.227241e+01 5.500000e+01 4.750000e+01
      vertex   7.781944e+01 5.500000e+01 5.448976e+01
    endloop
  endfacet
  facet normal 5.753572e-01 7.065656e-01 4.119820e-01
    outer loop
      vertex   1.249000e+02 0.000000e+00 8.306623e+01
      vertex   7.781944e+01 5.500000e+01 5.448976e+01
      vertex   1.188715e+02 0.000000e+00 9.148530e+01
    endloop
  endfacet
  facet normal 5.605254e-01 7.076863e-01 4.301063e-01
    outer loop
      vertex   1.188715e+02 0.000000e+00 9.148530e+01
      vertex   7.781944e+01 5.500000e+01 5.448976e+01
      vertex   7.277422e+01 5.500000e+01 6.106482e+01
    endloop
  endfacet
  facet normal 5.455755e-01 7.065495e-01 4.507052e-01
    outer loop
      vertex   1.188715e+02 0.000000e+00 9.148530e+01
      vertex   7.277422e+01 5.500000e+01 6.106482e+01
      vertex   1.122766e+02 0.000000e+00 9.946840e+01
    endloop
  endfacet
  facet normal 5.210055e-01 7.075518e-01 4.774136e-01
    outer loop
      vertex   1.122766e+02 0.000000e+00 9.946840e+01
      vertex   7.277422e+01 5.500000e+01 6.106482e+01
      vertex   6.717514e+01 5.500000e+01 6.717514e+01
    endloop
  endfacet
  facet normal 5.130454e-01 7.067366e-01 4.871425e-01
    outer loop
      vertex   1.122766e+02 0.000000e+00 9.946840e+01
      vertex   6.717514e+01 5.500000e+01 6.717514e+01
      vertex   1.051466e+02 0.000000e+00 1.069775e+02
    endloop
  endfacet
  facet normal 4.779684e-01 7.071008e-01 5.211091e-01
    outer loop
      vertex   1.051466e+02 0.000000e+00 1.069775e+02
      vertex   6.717514e+01 5.500000e+01 6.717514e+01
      vertex   9.751561e+01 0.000000e+00 1.139768e+02
    endloop
  endfacet
  facet normal 4.776992e-01 7.071293e-01 5.213172e-01
    outer loop
      vertex   9.751561e+01 0.000000e+00 1.139768e+02
      vertex   6.717514e+01 5.500000e+01 6.717514e+01
      vertex   6.106482e+01 5.500000e+01 7.277422e+01
    endloop
  endfacet
  facet normal 4.411138e-01 7.067217e-01 5.531392e-01
    outer loop
      vertex   9.751561e+01 0.000000e+00 1.139768e+02
      vertex   6.106482e+01 5.500000e+01 7.277422e+01
      vertex   8.941987e+01 0.000000e+00 1.204329e+02
    endloop
  endfacet
  facet normal 4.301791e-01 7.075669e-01 5.606203e-01
    outer loop
      vertex   8.941987e+01 0.000000e+00 1.204329e+02
      vertex   6.106482e+01 5.500000e+01 7.277422e+01
      vertex   5.448976e+01 5.500000e+01 7.781944e+01
    endloop
  endfacet
  facet normal 4.020011e-01 7.065453e-01 5.823992e-01
    outer loop
      vertex   8.941987e+01 0.000000e+00 1.204329e+02
      vertex   5.448976e+01 5.500000e+01 7.781944e+01
      vertex   8.089801e+01 0.000000e+00 1.263151e+02
    endloop
  endfacet
  facet normal 3.796175e-01 7.076845e-01 5.958801e-01
    outer loop
      vertex   8.089801e+01 0.000000e+00 1.263151e+02
      vertex   5.448976e+01 5.500000e+01 7.781944e+01
      vertex   4.750000e+01 5.500000e+01 8.227241e+01
    endloop
  endfacet
  facet normal 3.608493e-01 7.065721e-01 6.087230e-01
    outer loop
      vertex   8.089801e+01 0.000000e+00 1.263151e+02
      vertex   4.750000e+01 5.500000e+01 8.227241e+01
      vertex   7.199062e+01 0.000000e+00 1.315954e+02
    endloop
  endfacet
  facet normal 3.263319e-01 7.074828e-01 6.268777e-01
    outer loop
      vertex   7.199062e+01 0.000000e+00 1.315954e+02
      vertex   4.750000e+01 5.500000e+01 8.227241e+01
      vertex   4.014873e+01 5.500000e+01 8.609924e+01
    endloop
  endfacet
  facet normal 3.178898e-01 7.068019e-01 6.319630e-01
    outer loop
      vertex   7.199062e+01 0.000000e+00 1.315954e+02
      vertex   4.014873e+01 5.500000e+01 8.609924e+01
      vertex   6.274017e+01 0.000000e+00 1.362486e+02
    endloop
  endfacet
  facet normal 2.734543e-01 7.070042e-01 6.522023e-01
    outer loop
      vertex   6.274017e+01 0.000000e+00 1.362486e+02
      vertex   4.014873e+01 5.500000e+01 8.609924e+01
      vertex   5.319073e+01 0.000000e+00 1.402524e+02
    endloop
  endfacet
  facet normal 2.705440e-01 7.072481e-01 6.531509e-01
    outer loop
      vertex   5.319073e+01 0.000000e+00 1.402524e+02
      vertex   4.014873e+01 5.500000e+01 8.609924e+01
      vertex   3.249191e+01 5.500000e+01 8.927080e+01
    endloop
  endfacet
  facet normal 2.279149e-01 7.066677e-01 6.698325e-01
    outer loop
      vertex   5.319073e+01 0.000000e+00 1.402524e+02
      vertex   3.249191e+01 5.500000e+01 8.927080e+01
      vertex   4.338782e+01 0.000000e+00 1.435879e+02
    endloop
  endfacet
  facet normal 2.124772e-01 7.076182e-01 6.738916e-01
    outer loop
      vertex   4.338782e+01 0.000000e+00 1.435879e+02
      vertex   3.249191e+01 5.500000e+01 8.927080e+01
      vertex   2.458781e+01 5.500000e+01 9.176295e+01
    endloop
  endfacet
  facet normal 1.811935e-01 7.065341e-01 6.840896e-01
    outer loop
      vertex   4.338782e+01 0.000000e+00 1.435879e+02
      vertex   2.458781e+01 5.500000e+01 9.176295e+01
      vertex   3.337814e+01 0.000000e+00 1.462392e+02
    endloop
  endfacet
  facet normal 1.529242e-01 7.076686e-01 6.897966e-01
    outer loop
      vertex   3.337814e+01 0.000000e+00 1.462392e+02
      vertex   2.458781e+01 5.500000e+01 9.176295e+01
      vertex   1.649658e+01 5.500000e+01 9.355674e+01
    endloop
  endfacet
  facet normal 1.335525e-01 7.066036e-01 6.948922e-01
    outer loop
      vertex   3.337814e+01 0.000000e+00 1.462392e+02
      vertex   1.649658e+01 5.500000e+01 9.355674e+01
      vertex   2.320940e+01 0.000000e+00 1.481935e+02
    endloop
  endfacet
  facet normal 9.225773e-02 7.073995e-01 7.007670e-01
    outer loop
      vertex   2.320940e+01 0.000000e+00 1.481935e+02
      vertex   1.649658e+01 5.500000e+01 9.355674e+01
      vertex   8.279796e+00 5.500000e+01 9.463850e+01
    endloop
  endfacet
  facet normal 8.526010e-02 7.068761e-01 7.021801e-01
    outer loop
      vertex   2.320940e+01 0.000000e+00 1.481935e+02
      vertex   8.279796e+00 5.500000e+01 9.463850e+01
      vertex   1.293006e+01 0.000000e+00 1.494417e+02
    endloop
  endfacet
  facet normal 3.661065e-02 7.069165e-01 7.063488e-01
    outer loop
      vertex   1.293006e+01 0.000000e+00 1.494417e+02
      vertex   8.279796e+00 5.500000e+01 9.463850e+01
      vertex   2.589096e+00 0.000000e+00 1.499777e+02
    endloop
  endfacet
  facet normal 3.083284e-02 7.073526e-01 7.061881e-01
    outer loop
      vertex   2.589096e+00 0.000000e+00 1.499777e+02
      vertex   8.279796e+00 5.500000e+01 9.463850e+01
      vertex   5.817072e-15 5.500000e+01 9.500000e+01
    endloop
  endfacet
  facet normal -1.221347e-02 7.066227e-01 7.074851e-01
    outer loop
      vertex   2.589096e+00 0.000000e+00 1.499777e+02
      vertex   5.817072e-15 5.500000e+01 9.500000e+01
      vertex   -7.764203e+00 0.000000e+00 1.497989e+02
    endloop
  endfacet
  facet normal -3.081962e-02 7.076553e-01 7.058853e-01
    outer loop
      vertex   -7.764203e+00 0.000000e+00 1.497989e+02
      vertex   5.817072e-15 5.500000e+01 9.500000e+01
      vertex   -8.279796e+00 5.500000e+01 9.463850e+01
    endloop
  endfacet
  facet normal -6.100240e-02 7.065318e-01 7.050472e-01
    outer loop
      vertex   -7.764203e+00 0.000000e+00 1.497989e+02
      vertex   -8.279796e+00 5.500000e+01 9.463850e+01
      vertex   -1.808050e+01 0.000000e+00 1.489063e+02
    endloop
  endfacet
  facet normal -9.222650e-02 7.076385e-01 7.005298e-01
    outer loop
      vertex   -1.808050e+01 0.000000e+00 1.489063e+02
      vertex   -8.279796e+00 5.500000e+01 9.463850e+01
      vertex   -1.649658e+01 5.500000e+01 9.355674e+01
    endloop
  endfacet
  facet normal -1.094817e-01 7.066441e-01 6.990478e-01
    outer loop
      vertex   -1.808050e+01 0.000000e+00 1.489063e+02
      vertex   -1.649658e+01 5.500000e+01 9.355674e+01
      vertex   -2.831064e+01 0.000000e+00 1.473041e+02
    endloop
  endfacet
  facet normal -1.530036e-01 7.073021e-01 6.901548e-01
    outer loop
      vertex   -2.831064e+01 0.000000e+00 1.473041e+02
      vertex   -1.649658e+01 5.500000e+01 9.355674e+01
      vertex   -2.458781e+01 5.500000e+01 9.176295e+01
    endloop
  endfacet
  facet normal -1.573789e-01 7.069592e-01 6.895220e-01
    outer loop
      vertex   -2.831064e+01 0.000000e+00 1.473041e+02
      vertex   -2.458781e+01 5.500000e+01 9.176295e+01
      vertex   -3.840586e+01 0.000000e+00 1.450000e+02
    endloop
  endfacet
  facet normal -2.046099e-01 7.068378e-01 6.771374e-01
    outer loop
      vertex   -3.840586e+01 0.000000e+00 1.450000e+02
      vertex   -2.458781e+01 5.500000e+01 9.176295e+01
      vertex   -4.831807e+01 0.000000e+00 1.420048e+02
    endloop
  endfacet
  facet normal -2.125300e-01 7.074429e-01 6.740590e-01
    outer loop
      vertex   -4.831807e+01 0.000000e+00 1.420048e+02
      vertex   -2.458781e+01 5.500000e+01 9.176295e+01
      vertex   -3.249191e+01 5.500000e+01 8.927080e+01
    endloop
  endfacet
  facet normal -2.509278e-01 7.065867e-01 6.616423e-01
    outer loop
      vertex   -4.831807e+01 0.000000e+00 1.420048e+02
      vertex   -3.249191e+01 5.500000e+01 8.927080e+01
      vertex   -5.800001e+01 0.000000e+00 1.383329e+02
    endloop
  endfacet
  facet normal -2.703791e-01 7.076783e-01 6.527530e-01
    outer loop
      vertex   -5.800001e+01 0.000000e+00 1.383329e+02
      vertex   -3.249191e+01 5.500000e+01 8.927080e+01
      vertex   -4.014873e+01 5.500000e+01 8.609924e+01
    endloop
  endfacet
  facet normal -2.959975e-01 7.065386e-01 6.427976e-01
    outer loop
      vertex   -5.800001e+01 0.000000e+00 1.383329e+02
      vertex   -4.014873e+01 5.500000e+01 8.609924e+01
      vertex   -6.740556e+01 0.000000e+00 1.340018e+02
    endloop
  endfacet
  facet normal -3.262803e-01 7.075943e-01 6.267786e-01
    outer loop
      vertex   -6.740556e+01 0.000000e+00 1.340018e+02
      vertex   -4.014873e+01 5.500000e+01 8.609924e+01
      vertex   -4.750000e+01 5.500000e+01 8.227241e+01
    endloop
  endfacet
  facet normal -3.395652e-01 7.066936e-01 6.207090e-01
    outer loop
      vertex   -6.740556e+01 0.000000e+00 1.340018e+02
      vertex   -4.750000e+01 5.500000e+01 8.227241e+01
      vertex   -7.648989e+01 0.000000e+00 1.290322e+02
    endloop
  endfacet
  facet normal -3.798832e-01 7.071905e-01 5.962972e-01
    outer loop
      vertex   -7.648989e+01 0.000000e+00 1.290322e+02
      vertex   -4.750000e+01 5.500000e+01 8.227241e+01
      vertex   -5.448976e+01 5.500000e+01 7.781944e+01
    endloop
  endfacet
  facet normal -3.813867e-01 7.070514e-01 5.955019e-01
    outer loop
      vertex   -7.648989e+01 0.000000e+00 1.290322e+02
      vertex   -5.448976e+01 5.500000e+01 7.781944e+01
      vertex   -8.520971e+01 0.000000e+00 1.234476e+02
    endloop
  endfacet
  facet normal -4.217311e-01 7.067681e-01 5.679980e-01
    outer loop
      vertex   -8.520971e+01 0.000000e+00 1.234476e+02
      vertex   -5.448976e+01 5.500000e+01 7.781944e+01
      vertex   -9.352347e+01 0.000000e+00 1.172747e+02
    endloop
  endfacet
  facet normal -4.302082e-01 7.075191e-01 5.606582e-01
    outer loop
      vertex   -9.352347e+01 0.000000e+00 1.172747e+02
      vertex   -5.448976e+01 5.500000e+01 7.781944e+01
      vertex   -6.106482e+01 5.500000e+01 7.277422e+01
    endloop
  endfacet
  facet normal -4.600484e-01 7.065597e-01 5.377071e-01
    outer loop
      vertex   -9.352347e+01 0.000000e+00 1.172747e+02
      vertex   -6.106482e+01 5.500000e+01 7.277422e+01
      vertex   -1.013915e+02 0.000000e+00 1.105430e+02
    endloop
  endfacet
  facet normal -4.773220e-01 7.076872e-01 5.209055e-01
    outer loop
      vertex   -1.013915e+02 0.000000e+00 1.105430e+02
      vertex   -6.106482e+01 5.500000e+01 7.277422e+01
      vertex   -6.717514e+01 5.500000e+01 6.717514e+01
    endloop
  endfacet
  facet normal -4.960530e-01 7.065543e-01 5.046904e-01
    outer loop
      vertex   -1.013915e+02 0.000000e+00 1.105430e+02
      vertex   -6.717514e+01 5.500000e+01 6.717514e+01
      vertex   -1.087764e+02 0.000000e+00 1.032845e+02
    endloop
  endfacet
  facet normal -5.210172e-01 7.075359e-01 4.774243e-01
    outer loop
      vertex   -1.087764e+02 0.000000e+00 1.032845e+02
      vertex   -6.717514e+01 5.500000e+01 6.717514e+01
      vertex   -7.277422e+01 5.500000e+01 6.106482e+01
    endloop
  endfacet
  facet normal -5.295424e-01 7.067521e-01 4.691336e-01
    outer loop
      vertex   -1.087764e+02 0.000000e+00 1.032845e+02
      vertex   -7.277422e+01 5.500000e+01 6.106482e+01
      vertex   -1.156430e+02 0.000000e+00 9.553377e+01
    endloop
  endfacet
  facet normal -5.603903e-01 7.070758e-01 4.312848e-01
    outer loop
      vertex   -1.156430e+02 0.000000e+00 9.553377e+01
      vertex   -7.277422e+01 5.500000e+01 6.106482e+01
      vertex   -1.219584e+02 0.000000e+00 8.732780e+01
    endloop
  endfacet
  facet normal -5.609430e-01 7.071603e-01 4.304267e-01
    outer loop
      vertex   -1.219584e+02 0.000000e+00 8.732780e+01
      vertex   -7.277422e+01 5.500000e+01 6.106482e+01
      vertex   -7.781944e+01 5.500000e+01 5.448976e+01
    endloop
  endfacet
  facet normal -5.891164e-01 7.067074e-01 3.917990e-01
    outer loop
      vertex   -1.219584e+02 0.000000e+00 8.732780e+01
      vertex   -7.781944e+01 5.500000e+01 5.448976e+01
      vertex   -1.276927e+02 0.000000e+00 7.870567e+01
    endloop
  endfacet
  facet normal -5.959676e-01 7.075810e-01 3.796732e-01
    outer loop
      vertex   -1.276927e+02 0.000000e+00 7.870567e+01
      vertex   -7.781944e+01 5.500000e+01 5.448976e+01
      vertex   -8.227241e+01 5.500000e+01 4.750000e+01
    endloop
  endfacet
  facet normal -6.148872e-01 7.065417e-01 3.503036e-01
    outer loop
      vertex   -1.276927e+02 0.000000e+00 7.870567e+01
      vertex   -8.227241e+01 5.500000e+01 4.750000e+01
      vertex   -1.328184e+02 0.000000e+00 6.970848e+01
    endloop
  endfacet
  facet normal -6.267008e-01 7.076819e-01 3.262398e-01
    outer loop
      vertex   -1.328184e+02 0.000000e+00 6.970848e+01
      vertex   -8.227241e+01 5.500000e+01 4.750000e+01
      vertex   -8.609924e+01 5.500000e+01 4.014873e+01
    endloop
  endfacet
  facet normal -6.375563e-01 7.065791e-01 3.070309e-01
    outer loop
      vertex   -1.328184e+02 0.000000e+00 6.970848e+01
      vertex   -8.609924e+01 5.500000e+01 4.014873e+01
      vertex   -1.373112e+02 0.000000e+00 6.037909e+01
    endloop
  endfacet
  facet normal -6.529519e-01 7.074633e-01 2.704615e-01
    outer loop
      vertex   -1.373112e+02 0.000000e+00 6.037909e+01
      vertex   -8.609924e+01 5.500000e+01 4.014873e+01
      vertex   -8.927080e+01 5.500000e+01 3.249191e+01
    endloop
  endfacet
  facet normal -6.569965e-01 7.068196e-01 2.622246e-01
    outer loop
      vertex   -1.373112e+02 0.000000e+00 6.037909e+01
      vertex   -8.927080e+01 5.500000e+01 3.249191e+01
      vertex   -1.411496e+02 0.000000e+00 5.076196e+01
    endloop
  endfacet
  facet normal -6.733682e-01 7.069814e-01 2.162234e-01
    outer loop
      vertex   -1.411496e+02 0.000000e+00 5.076196e+01
      vertex   -8.927080e+01 5.500000e+01 3.249191e+01
      vertex   -1.443155e+02 0.000000e+00 4.090293e+01
    endloop
  endfacet
  facet normal -6.742187e-01 7.072755e-01 2.125804e-01
    outer loop
      vertex   -1.443155e+02 0.000000e+00 4.090293e+01
      vertex   -8.927080e+01 5.500000e+01 3.249191e+01
      vertex   -9.176295e+01 5.500000e+01 2.458781e+01
    endloop
  endfacet
  facet normal -6.869973e-01 7.066556e-01 1.693296e-01
    outer loop
      vertex   -1.443155e+02 0.000000e+00 4.090293e+01
      vertex   -9.176295e+01 5.500000e+01 2.458781e+01
      vertex   -1.467935e+02 0.000000e+00 3.084899e+01
    endloop
  endfacet
  facet normal -6.898355e-01 7.076288e-01 1.529328e-01
    outer loop
      vertex   -1.467935e+02 0.000000e+00 3.084899e+01
      vertex   -9.176295e+01 5.500000e+01 2.458781e+01
      vertex   -9.355674e+01 5.500000e+01 1.649658e+01
    endloop
  endfacet
  facet normal -6.971636e-01 7.065327e-01 1.215505e-01
    outer loop
      vertex   -1.467935e+02 0.000000e+00 3.084899e+01
      vertex   -9.355674e+01 5.500000e+01 1.649658e+01
      vertex   -1.485721e+02 0.000000e+00 2.064803e+01
    endloop
  endfacet
  facet normal -7.005061e-01 7.076624e-01 9.222337e-02
    outer loop
      vertex   -1.485721e+02 0.000000e+00 2.064803e+01
      vertex   -9.355674e+01 5.500000e+01 1.649658e+01
      vertex   -9.463850e+01 5.500000e+01 8.279796e+00
    endloop
  endfacet
  facet normal -7.038087e-01 7.066129e-01 7.315451e-02
    outer loop
      vertex   -1.485721e+02 0.000000e+00 2.064803e+01
      vertex   -9.463850e+01 5.500000e+01 8.279796e+00
      vertex   -1.496426e+02 0.000000e+00 1.034867e+01
    endloop
  endfacet
  facet normal -7.061642e-01 7.073765e-01 3.083179e-02
    outer loop
      vertex   -1.496426e+02 0.000000e+00 1.034867e+01
      vertex   -9.463850e+01 5.500000e+01 8.279796e+00
      vertex   -9.500000e+01 5.500000e+01 1.163414e-14
    endloop
  endfacet
  facet normal 0.000000e+00 1.000000e+00 0.000000e+00
    outer loop
      vertex   -9.463850e+01 5.500000e+01 8.279796e+00
      vertex   9.463850e+01 5.500000e+01 8.279796e+00
      vertex   -9.500000e+01 5.500000e+01 1.163414e-14
    endloop
  endfacet
  facet normal -0.000000e+00 1.000000e+00 0.000000e+00
    outer loop
      vertex   -9.500000e+01 5.500000e+01 1.163414e-14
      vertex   9.463850e+01 5.500000e+01 8.279796e+00
      vertex   9.500000e+01 5.500000e+01 0.000000e+00
    endloop
  endfacet
  facet normal 0.000000e+00 1.000000e+00 0.000000e+00
    outer loop
      vertex   -9.500000e+01 5.500000e+01 1.163414e-14
      vertex   9.500000e+01 5.500000e+01 0.000000e+00
      vertex   -9.463850e+01 5.500000e+01 -8.279796e+00
    endloop
  endfacet
  facet normal 0.000000e+00 1.000000e+00 0.000000e+00
    outer loop
      vertex   -9.463850e+01 5.500000e+01 -8.279796e+00
      vertex   9.500000e+01 5.500000e+01 0.000000e+00
      vertex   9.463850e+01 5.500000e+01 -8.279796e+00
    endloop
  endfacet
  facet normal -0.000000e+00 1.000000e+00 0.000000e+00
    outer loop
      vertex   -9.463850e+01 5.500000e+01 -8.279796e+00
      vertex   9.463850e+01 5.500000e+01 -8.279796e+00
      vertex   -9.355674e+01 5.500000e+01 -1.649658e+01
    endloop
  endfacet
  facet normal -0.000000e+00 1.000000e+00 0.000000e+00
    outer loop
      vertex   -9.355674e+01 5.500000e+01 -1.649658e+01
      vertex   9.463850e+01 5.500000e+01 -8.279796e+00
      vertex   9.355674e+01 5.500000e+01 -1.649658e+01
    endloop
  endfacet
  facet normal 0.000000e+00 1.000000e+00 0.000000e+00
    outer loop
      vertex   -9.355674e+01 5.500000e+01 -1.649658e+01
      vertex   9.355674e+01 5.500000e+01 -1.649658e+01
      vertex   -9.176295e+01 5.500000e+01 -2.458781e+01
    endloop
  endfacet
  facet normal 0.000000e+00 1.000000e+00 0.000000e+00
    outer loop
      vertex   -9.176295e+01 5.500000e+01 -2.458781e+01
      vertex   9.355674e+01 5.500000e+01 -1.649658e+01
      vertex   9.176295e+01 5.500000e+01 -2.458781e+01
    endloop
  endfacet
  facet normal -0.000000e+00 1.000000e+00 0.000000e+00
    outer loop
      vertex   -9.176295e+01 5.500000e+01 -2.458781e+01
      vertex   9.176295e+01 5.500000e+01 -2.458781e+01
      vertex   -8.927080e+01 5.500000e+01 -3.249191e+01
    endloop
  endfacet
  facet normal 0.000000e+00 1.000000e+00 0.000000e+00
    outer loop
      vertex   -8.927080e+01 5.500000e+01 -3.249191e+01
      vertex   9.176295e+01 5.500000e+01 -2.458781e+01
      vertex   8.927080e+01 5.500000e+01 -3.249191e+01
    endloop
  endfacet
  facet normal -0.000000e+00 1.000000e+00 0.000000e+00
    outer loop
      vertex   -8.927080e+01 5.500000e+01 -3.249191e+01
      vertex   8.927080e+01 5.500000e+01 -3.249191e+01
      vertex   -8.609924e+01 5.500000e+01 -4.014873e+01
    endloop
  endfacet
  facet normal 0.000000e+00 1.000000e+00 0.000000e+00
    outer loop
      vertex   -8.609924e+01 5.500000e+01 -4.014873e+01
      vertex   8.927080e+01 5.500000e+01 -3.249191e+01
      vertex   8.609924e+01 5.500000e+01 -4.014873e+01
    endloop
  endfacet
  facet normal -0.000000e+00 1.000000e+00 0.000000e+00
    outer loop
      vertex   -8.609924e+01 5.500000e+01 -4.014873e+01
      vertex   8.609924e+01 5.500000e+01 -4.014873e+01
      vertex   -8.227241e+01 5.500000e+01 -4.750000e+01
    endloop
  endfacet
  facet normal 0.000000e+00 1.000000e+00 0.000000e+00
    outer loop
      vertex   -8.227241e+01 5.500000e+01 -4.750000e+01
      vertex   8.609924e+01 5.500000e+01 -4.014873e+01
      vertex   8.227241e+01 5.500000e+01 -4.750000e+01
    endloop
  endfacet
  facet normal -0.000000e+00 1.000000e+00 0.000000e+00
    outer loop
      vertex   -8.227241e+01 5.500000e+01 -4.750000e+01
      vertex   8.227241e+01 5.500000e+01 -4.750000e+01
      vertex   -7.781944e+01 5.500000e+01 -5.448976e+01
    endloop
  endfacet
  facet normal 0.000000e+00 1.000000e+00 0.000000e+00
    outer loop
      vertex   -7.781944e+01 5.500000e+01 -5.448976e+01
      vertex   8.227241e+01 5.500000e+01 -4.750000e+01
      vertex   7.781944e+01 5.500000e+01 -5.448976e+01
    endloop
  endfacet
  facet normal -0.000000e+00 1.000000e+00 0.000000e+00
    outer loop
      vertex   -7.781944e+01 5.500000e+01 -5.448976e+01
      vertex   7.781944e+01 5.500000e+01 -5.448976e+01
      vertex   -7.277422e+01 5.500000e+01 -6.106482e+01
    endloop
  endfacet
  facet normal 0.000000e+00 1.000000e+00 0.000000e+00
    outer loop
      vertex   -7.277422e+01 5.500000e+01 -6.106482e+01
      vertex   7.781944e+01 5.500000e+01 -5.448976e+01
      vertex   7.277422e+01 5.500000e+01 -6.106482e+01
    endloop
  endfacet
  facet normal -0.000000e+00 1.000000e+00 0.000000e+00
    outer loop
      vertex   -7.277422e+01 5.500000e+01 -6.106482e+01
      vertex   7.277422e+01 5.500000e+01 -6.106482e+01
      vertex   -6.717514e+01 5.500000e+01 -6.717514e+01
    endloop
  endfacet
  facet normal 0.000000e+00 1.000000e+00 0.000000e+00
    outer loop
      vertex   -6.717514e+01 5.500000e+01 -6.717514e+01
      vertex   7.277422e+01 5.500000e+01 -6.106482e+01
      vertex   6.717514e+01 5.500000e+01 -6.717514e+01
    endloop
  endfacet
  facet normal -0.000000e+00 1.000000e+00 0.000000e+00
    outer loop
      vertex   -6.717514e+01 5.500000e+01 -6.717514e+01
      vertex   6.717514e+01 5.500000e+01 -6.717514e+01
      vertex   -6.106482e+01 5.500000e+01 -7.277422e+01
    endloop
  endfacet
  facet normal 0.000000e+00 1.000000e+00 0.000000e+00
    outer loop
      vertex   -6.106482e+01 5.500000e+01 -7.277422e+01
      vertex   6.717514e+01 5.500000e+01 -6.717514e+01
      vertex   6.106482e+01 5.500000e+01 -7.277422e+01
    endloop
  endfacet
  facet normal -0.000000e+00 1.000000e+00 0.000000e+00
    outer loop
      vertex   -6.106482e+01 5.500000e+01 -7.277422e+01
      vertex   6.106482e+01 5.500000e+01 -7.277422e+01
      vertex   -5.448976e+01 5.500000e+01 -7.781944e+01
    endloop
  endfacet
  facet normal -0.000000e+00 1.000000e+00 0.000000e+00
    outer loop
      vertex   -5.448976e+01 5.500000e+01 -7.781944e+01
      vertex   6.106482e+01 5.500000e+01 -7.277422e+01
      vertex   5.448976e+01 5.500000e+01 -7.781944e+01
    endloop
  endfacet
  facet normal 0.000000e+00 1.000000e+00 0.000000e+00
    outer loop
      vertex   -5.448976e+01 5.500000e+01 -7.781944e+01
      vertex   5.448976e+01 5.500000e+01 -7.781944e+01
      vertex   -4.750000e+01 5.500000e+01 -8.227241e+01
    endloop
  endfacet
  facet normal -0.000000e+00 1.000000e+00 0.000000e+00
    outer loop
      vertex   -4.750000e+01 5.500000e+01 -8.227241e+01
      vertex   5.448976e+01 5.500000e+01 -7.781944e+01
      vertex   4.750000e+01 5.500000e+01 -8.227241e+01
    endloop
  endfacet
  facet normal 0.000000e+00 1.000000e+00 0.000000e+00
    outer loop
      vertex   -4.750000e+01 5.500000e+01 -8.227241e+01
      vertex   4.750000e+01 5.500000e+01 -8.227241e+01
      vertex   -4.014873e+01 5.500000e+01 -8.609924e+01
    endloop
  endfacet
  facet normal 0.000000e+00 1.000000e+00 0.000000e+00
    outer loop
      vertex   -4.014873e+01 5.500000e+01 -8.609924e+01
      vertex   4.750000e+01 5.500000e+01 -8.227241e+01
      vertex   4.014873e+01 5.500000e+01 -8.609924e+01
    endloop
  endfacet
  facet normal -0.000000e+00 1.000000e+00 0.000000e+00
    outer loop
      vertex   -4.014873e+01 5.500000e+01 -8.609924e+01
      vertex   4.014873e+01 5.500000e+01 -8.609924e+01
      vertex   -3.249191e+01 5.500000e+01 -8.927080e+01
    endloop
  endfacet
  facet normal 0.000000e+00 1.000000e+00 0.000000e+00
    outer loop
      vertex   -3.249191e+01 5.500000e+01 -8.927080e+01
      vertex   4.014873e+01 5.500000e+01 -8.609924e+01
      vertex   3.249191e+01 5.500000e+01 -8.927080e+01
    endloop
  endfacet
  facet normal -0.000000e+00 1.000000e+00 0.000000e+00
    outer loop
      vertex   -3.249191e+01 5.500000e+01 -8.927080e+01
      vertex   3.249191e+01 5.500000e+01 -8.927080e+01
      vertex   -2.458781e+01 5.500000e+01 -9.176295e+01
    endloop
  endfacet
  facet normal 0.000000e+00 1.000000e+00 0.000000e+00
    outer loop
      vertex   -2.458781e+01 5.500000e+01 -9.176295e+01
      vertex   3.249191e+01 5.500000e+01 -8.927080e+01
      vertex   2.458781e+01 5.500000e+01 -9.176295e+01
    endloop
  endfacet
  facet normal -0.000000e+00 1.000000e+00 0.000000e+00
    outer loop
      vertex   -2.458781e+01 5.500000e+01 -9.176295e+01
      vertex   2.458781e+01 5.500000e+01 -9.176295e+01
      vertex   -1.649658e+01 5.500000e+01 -9.355674e+01
    endloop
  endfacet
  facet normal 0.000000e+00 1.000000e+00 0.000000e+00
    outer loop
      vertex   -1.649658e+01 5.500000e+01 -9.355674e+01
      vertex   2.458781e+01 5.500000e+01 -9.176295e+01
      vertex   1.649658e+01 5.500000e+01 -9.355674e+01
    endloop
  endfacet
  facet normal -0.000000e+00 1.000000e+00 0.000000e+00
    outer loop
      vertex   -1.649658e+01 5.500000e+01 -9.355674e+01
      vertex   1.649658e+01 5.500000e+01 -9.355674e+01
      vertex   -8.279796e+00 5.500000e+01 -9.463850e+01
    endloop
  endfacet
  facet normal 0.000000e+00 1.000000e+00 0.000000e+00
    outer loop
      vertex   -8.279796e+00 5.500000e+01 -9.463850e+01
      vertex   1.649658e+01 5.500000e+01 -9.355674e+01
      vertex   8.279796e+00 5.500000e+01 -9.463850e+01
    endloop
  endfacet
  facet normal -0.000000e+00 1.000000e+00 0.000000e+00
    outer loop
      vertex   -8.279796e+00 5.500000e+01 -9.463850e+01
      vertex   8.279796e+00 5.500000e+01 -9.463850e+01
      vertex   5.817072e-15 5.500000e+01 -9.500000e+01
    endloop
  endfacet
  facet normal 0.000000e+00 1.000000e+00 0.000000e+00
    outer loop
      vertex   9.463850e+01 5.500000e+01 8.279796e+00
      vertex   -9.463850e+01 5.500000e+01 8.279796e+00
      vertex   9.355674e+01 5.500000e+01 1.649658e+01
    endloop
  endfacet
  facet normal 0.000000e+00 1.000000e+00 0.000000e+00
    outer loop
      vertex   9.355674e+01 5.500000e+01 1.649658e+01
      vertex   -9.463850e+01 5.500000e+01 8.279796e+00
      vertex   -9.355674e+01 5.500000e+01 1.649658e+01
    endloop
  endfacet
  facet normal 0.000000e+00 1.000000e+00 0.000000e+00
    outer loop
      vertex   9.355674e+01 5.500000e+01 1.649658e+01
      vertex   -9.355674e+01 5.500000e+01 1.649658e+01
      vertex   9.176295e+01 5.500000e+01 2.458781e+01
    endloop
  endfacet
  facet normal 0.000000e+00 1.000000e+00 0.000000e+00
    outer loop
      vertex   9.176295e+01 5.500000e+01 2.458781e+01
      vertex   -9.355674e+01 5.500000e+01 1.649658e+01
      vertex   -9.176295e+01 5.500000e+01 2.458781e+01
    endloop
  endfacet
  facet normal 0.000000e+00 1.000000e+00 0.000000e+00
    outer loop
      vertex   9.176295e+01 5.500000e+01 2.458781e+01
      vertex   -9.176295e+01 5.500000e+01 2.458781e+01
      vertex   8.927080e+01 5.500000e+01 3.249191e+01
    endloop
  endfacet
  facet normal 0.000000e+00 1.000000e+00 0.000000e+00
    outer loop
      vertex   8.927080e+01 5.500000e+01 3.249191e+01
      vertex   -9.176295e+01 5.500000e+01 2.458781e+01
      vertex   -8.927080e+01 5.500000e+01 3.249191e+01
    endloop
  endfacet
  facet normal 0.000000e+00 1.000000e+00 0.000000e+00
    outer loop
      vertex   8.927080e+01 5.500000e+01 3.249191e+01
      vertex   -8.927080e+01 5.500000e+01 3.249191e+01
      vertex   8.609924e+01 5.500000e+01 4.014873e+01
    endloop
  endfacet
  facet normal 0.000000e+00 1.000000e+00 0.000000e+00
    outer loop
      vertex   8.609924e+01 5.500000e+01 4.014873e+01
      vertex   -8.927080e+01 5.500000e+01 3.249191e+01
      vertex   -8.609924e+01 5.500000e+01 4.014873e+01
    endloop
  endfacet
  facet normal 0.000000e+00 1.000000e+00 0.000000e+00
    outer loop
      vertex   8.609924e+01 5.500000e+01 4.014873e+01
      vertex   -8.609924e+01 5.500000e+01 4.014873e+01
      vertex   8.227241e+01 5.500000e+01 4.750000e+01
    endloop
  endfacet
  facet normal 0.000000e+00 1.000000e+00 0.000000e+00
    outer loop
      vertex   8.227241e+01 5.500000e+01 4.750000e+01
      vertex   -8.609924e+01 5.500000e+01 4.014873e+01
      vertex   -8.227241e+01 5.500000e+01 4.750000e+01
    endloop
  endfacet
  facet normal 0.000000e+00 1.000000e+00 0.000000e+00
    outer loop
      vertex   8.227241e+01 5.500000e+01 4.750000e+01
      vertex   -8.227241e+01 5.500000e+01 4.750000e+01
      vertex   7.781944e+01 5.500000e+01 5.448976e+01
    endloop
  endfacet
  facet normal 0.000000e+00 1.000000e+00 0.000000e+00
    outer loop
      vertex   7.781944e+01 5.500000e+01 5.448976e+01
      vertex   -8.227241e+01 5.500000e+01 4.750000e+01
      vertex   -7.781944e+01 5.500000e+01 5.448976e+01
    endloop
  endfacet
  facet normal 0.000000e+00 1.000000e+00 0.000000e+00
    outer loop
      vertex   7.781944e+01 5.500000e+01 5.448976e+01
      vertex   -7.781944e+01 5.500000e+01 5.448976e+01
      vertex   7.277422e+01 5.500000e+01 6.106482e+01
    endloop
  endfacet
  facet normal 0.000000e+00 1.000000e+00 0.000000e+00
    outer loop
      vertex   7.277422e+01 5.500000e+01 6.106482e+01
      vertex   -7.781944e+01 5.500000e+01 5.448976e+01
      vertex   -7.277422e+01 5.500000e+01 6.106482e+01
    endloop
  endfacet
  facet normal 0.000000e+00 1.000000e+00 0.000000e+00
    outer loop
      vertex   7.277422e+01 5.500000e+01 6.106482e+01
      vertex   -7.277422e+01 5.500000e+01 6.106482e+01
      vertex   6.717514e+01 5.500000e+01 6.717514e+01
    endloop
  endfacet
  facet normal 0.000000e+00 1.000000e+00 0.000000e+00
    outer loop
      vertex   6.717514e+01 5.500000e+01 6.717514e+01
      vertex   -7.277422e+01 5.500000e+01 6.106482e+01
      vertex   -6.717514e+01 5.500000e+01 6.717514e+01
    endloop
  endfacet
  facet normal 0.000000e+00 1.000000e+00 0.000000e+00
    outer loop
      vertex   6.717514e+01 5.500000e+01 6.717514e+01
      vertex   -6.717514e+01 5.500000e+01 6.717514e+01
      vertex   6.106482e+01 5.500000e+01 7.277422e+01
    endloop
  endfacet
  facet normal 0.000000e+00 1.000000e+00 0.000000e+00
    outer loop
      vertex   6.106482e+01 5.500000e+01 7.277422e+01
      vertex   -6.717514e+01 5.500000e+01 6.717514e+01
      vertex   -6.106482e+01 5.500000e+01 7.277422e+01
    endloop
  endfacet
  facet normal 0.000000e+00 1.000000e+00 0.000000e+00
    outer loop
      vertex   6.106482e+01 5.500000e+01 7.277422e+01
      vertex   -6.106482e+01 5.500000e+01 7.277422e+01
      vertex   5.448976e+01 5.500000e+01 7.781944e+01
    endloop
  endfacet
  facet normal 0.000000e+00 1.000000e+00 0.000000e+00
    outer loop
      vertex   5.448976e+01 5.500000e+01 7.781944e+01
      vertex   -6.106482e+01 5.500000e+01 7.277422e+01
      vertex   -5.448976e+01 5.500000e+01 7.781944e+01
    endloop
  endfacet
  facet normal 0.000000e+00 1.000000e+00 0.000000e+00
    outer loop
      vertex   5.448976e+01 5.500000e+01 7.781944e+01
      vertex   -5.448976e+01 5.500000e+01 7.781944e+01
      vertex   4.750000e+01 5.500000e+01 8.227241e+01
    endloop
  endfacet
  facet normal 0.000000e+00 1.000000e+00 0.000000e+00
    outer loop
      vertex   4.750000e+01 5.500000e+01 8.227241e+01
      vertex   -5.448976e+01 5.500000e+01 7.781944e+01
      vertex   -4.750000e+01 5.500000e+01 8.227241e+01
    endloop
  endfacet
  facet normal 0.000000e+00 1.000000e+00 0.000000e+00
    outer loop
      vertex   4.750000e+01 5.500000e+01 8.227241e+01
      vertex   -4.750000e+01 5.500000e+01 8.227241e+01
      vertex   4.014873e+01 5.500000e+01 8.609924e+01
    endloop
  endfacet
  facet normal 0.000000e+00 1.000000e+00 0.000000e+00
    outer loop
      vertex   4.014873e+01 5.500000e+01 8.609924e+01
      vertex   -4.750000e+01 5.500000e+01 8.227241e+01
      vertex   -4.014873e+01 5.500000e+01 8.609924e+01
    endloop
  endfacet
  facet normal 0.000000e+00 1.000000e+00 0.000000e+00
    outer loop
      vertex   4.014873e+01 5.500000e+01 8.609924e+01
      vertex   -4.014873e+01 5.500000e+01 8.609924e+01
      vertex   3.249191e+01 5.500000e+01 8.927080e+01
    endloop
  endfacet
  facet normal 0.000000e+00 1.000000e+00 0.000000e+00
    outer loop
      vertex   3.249191e+01 5.500000e+01 8.927080e+01
      vertex   -4.014873e+01 5.500000e+01 8.609924e+01
      vertex   -3.249191e+01 5.500000e+01 8.927080e+01
    endloop
  endfacet
  facet normal 0.000000e+00 1.000000e+00 0.000000e+00
    outer loop
      vertex   3.249191e+01 5.500000e+01 8.927080e+01
      vertex   -3.249191e+01 5.500000e+01 8.927080e+01
      vertex   2.458781e+01 5.500000e+01 9.176295e+01
    endloop
  endfacet
  facet normal 0.000000e+00 1.000000e+00 0.000000e+00
    outer loop
      vertex   2.458781e+01 5.500000e+01 9.176295e+01
      vertex   -3.249191e+01 5.500000e+01 8.927080e+01
      vertex   -2.458781e+01 5.500000e+01 9.176295e+01
    endloop
  endfacet
  facet normal 0.000000e+00 1.000000e+00 0.000000e+00
    outer loop
      vertex   2.458781e+01 5.500000e+01 9.176295e+01
      vertex   -2.458781e+01 5.500000e+01 9.176295e+01
      vertex   1.649658e+01 5.500000e+01 9.355674e+01
    endloop
  endfacet
  facet normal 0.000000e+00 1.000000e+00 0.000000e+00
    outer loop
      vertex   1.649658e+01 5.500000e+01 9.355674e+01
      vertex   -2.458781e+01 5.500000e+01 9.176295e+01
      vertex   -1.649658e+01 5.500000e+01 9.355674e+01
    endloop
  endfacet
  facet normal 0.000000e+00 1.000000e+00 0.000000e+00
    outer loop
      vertex   1.649658e+01 5.500000e+01 9.355674e+01
      vertex   -1.649658e+01 5.500000e+01 9.355674e+01
      vertex   8.279796e+00 5.500000e+01 9.463850e+01
    endloop
  endfacet
  facet normal 0.000000e+00 1.000000e+00 0.000000e+00
    outer loop
      vertex   8.279796e+00 5.500000e+01 9.463850e+01
      vertex   -1.649658e+01 5.500000e+01 9.355674e+01
      vertex   -8.279796e+00 5.500000e+01 9.463850e+01
    endloop
  endfacet
  facet normal 0.000000e+00 1.000000e+00 0.000000e+00
    outer loop
      vertex   8.279796e+00 5.500000e+01 9.463850e+01
      vertex   -8.279796e+00 5.500000e+01 9.463850e+01
      vertex   5.817072e-15 5.500000e+01 9.500000e+01
    endloop
  endfacet
endsolid
